<svg width="49" height="50" viewBox="0 0 49 50" fill="none" xmlns="http://www.w3.org/2000/svg">
<path d="M16.5003 23.573C16.4831 22.6827 16.6436 21.798 16.9724 20.9705C17.3011 20.143 17.7916 19.3894 18.4151 18.7537C19.0387 18.118 19.7827 17.6131 20.6036 17.2684C21.4246 16.9236 22.3061 16.7461 23.1965 16.7461C24.0869 16.7461 24.9684 16.9236 25.7894 17.2684C26.6104 17.6131 27.3544 18.118 27.9779 18.7537C28.6014 19.3894 29.0919 20.143 29.4207 20.9705C29.7495 21.798 29.91 22.6827 29.8928 23.573C29.8589 25.3265 29.1385 26.9968 27.8864 28.225C26.6343 29.4531 24.9504 30.1411 23.1965 30.1411C21.4426 30.1411 19.7587 29.4531 18.5066 28.225C17.2545 26.9968 16.5342 25.3265 16.5003 23.573Z" fill="#4C5C6B"/>
<path d="M0.25 25C0.25 11.5375 11.1625 0.625 24.625 0.625C38.0875 0.625 49 11.5375 49 25C49 38.4625 38.0875 49.375 24.625 49.375C11.1625 49.375 0.25 38.4625 0.25 25ZM23.1975 13.125C21.5586 13.125 19.9428 13.5105 18.4804 14.2504C17.0181 14.9903 15.7504 16.0639 14.7797 17.3843C13.8089 18.7047 13.1625 20.235 12.8925 21.8515C12.6225 23.4679 12.7366 25.1253 13.2256 26.6895C13.7145 28.2537 14.5646 29.6809 15.7071 30.8559C16.8496 32.0308 18.2525 32.9205 19.8025 33.4531C21.3524 33.9856 23.0059 34.146 24.6292 33.9214C26.2526 33.6968 27.8004 33.0934 29.1475 32.16L33.2975 36.3225C33.4702 36.5018 33.6769 36.6449 33.9055 36.7435C34.1341 36.8421 34.3801 36.8941 34.629 36.8967C34.878 36.8992 35.1249 36.8521 35.3555 36.7581C35.5861 36.6642 35.7956 36.5252 35.9719 36.3494C36.1482 36.1737 36.2877 35.9645 36.3823 35.7342C36.4769 35.5039 36.5247 35.2571 36.5229 35.0082C36.5211 34.7592 36.4697 34.5131 36.3718 34.2842C36.2739 34.0553 36.1313 33.8482 35.9525 33.675L31.795 29.505C32.8768 27.9368 33.5092 26.1027 33.6238 24.2011C33.7384 22.2995 33.3309 20.4027 32.4453 18.7159C31.5597 17.0292 30.2298 15.6167 28.5994 14.6313C26.9689 13.6458 25.1026 13.125 23.1975 13.125Z" fill="#4C5C6B"/>
</svg>
