<svg width="76" height="76" viewBox="0 0 76 76" fill="none" xmlns="http://www.w3.org/2000/svg">
<g filter="url(#filter0_d_1694_14439)">
<rect x="3.5" y="3.5" width="69" height="69" rx="34.5" fill="white" stroke="#E8E8E8"/>
</g>
<path d="M46.125 33.3122H31.125V26.281C31.1243 26.0162 31.1761 25.7539 31.2774 25.5092C31.3788 25.2646 31.5276 25.0425 31.7154 24.8558L31.731 24.8401C32.0252 24.5463 32.403 24.3505 32.8127 24.2795C33.2224 24.2084 33.6441 24.2656 34.02 24.4432C33.6649 25.0336 33.5174 25.7257 33.6007 26.4096C33.6841 27.0935 33.9936 27.7299 34.4801 28.2177L34.9079 28.6455L34.1205 29.4329L35.0043 30.3167L35.7917 29.5293L40.1546 25.1666L40.942 24.3792L40.0581 23.4953L39.2707 24.2827L38.8429 23.8549C38.3307 23.3442 37.6556 23.0293 36.9351 22.9653C36.2147 22.9012 35.4946 23.092 34.9004 23.5043C34.2737 23.1085 33.5311 22.9377 32.7946 23.0198C32.058 23.1019 31.3712 23.4321 30.8471 23.9562L30.8315 23.9718C30.5273 24.2743 30.2861 24.6342 30.1219 25.0306C29.9578 25.4269 29.8738 25.8519 29.875 26.281V33.3122H28.625V34.5622H29.875V35.7614C29.875 35.8622 29.8913 35.9623 29.9231 36.0579L31.0859 39.5462C31.148 39.7329 31.2673 39.8954 31.427 40.0104C31.5866 40.1255 31.7784 40.1874 31.9752 40.1872H32.4791L32.0234 41.7497H33.3255L33.7812 40.1872H41.9102L42.3789 41.7497H43.6836L43.2148 40.1872H44.0246C44.2214 40.1874 44.4133 40.1256 44.573 40.0105C44.7326 39.8954 44.852 39.7329 44.9141 39.5462L46.0768 36.0579C46.1087 35.9623 46.125 35.8622 46.125 35.7614V34.5622H47.375V33.3122H46.125ZM35.3641 24.7388C35.7084 24.3952 36.1751 24.2022 36.6615 24.2022C37.148 24.2022 37.6147 24.3952 37.959 24.7388L38.3867 25.1666L35.7918 27.7614L35.3641 27.3337C35.0205 26.9894 34.8275 26.5227 34.8275 26.0363C34.8275 25.5498 35.0205 25.0832 35.3641 24.7388ZM44.875 35.7107L43.7995 38.9372H32.2005L31.125 35.7107V34.5622H44.875V35.7107Z" fill="#3252DF"/>
<path d="M22.8486 46.0312V47.9307C22.8486 48.1488 22.8421 48.3604 22.8291 48.5654C22.8193 48.7705 22.8112 48.93 22.8047 49.0439H22.8486C22.9951 48.8031 23.2067 48.5996 23.4834 48.4336C23.7601 48.2676 24.1133 48.1846 24.543 48.1846C25.2135 48.1846 25.7474 48.4173 26.1445 48.8828C26.5449 49.3451 26.7451 50.0335 26.7451 50.9482C26.7451 51.5505 26.654 52.0583 26.4717 52.4717C26.2894 52.8851 26.0322 53.1976 25.7002 53.4092C25.3682 53.6208 24.9759 53.7266 24.5234 53.7266C24.1003 53.7266 23.752 53.6484 23.4785 53.4922C23.2083 53.3327 23 53.139 22.8535 52.9111H22.79L22.624 53.6289H22.0381V46.0312H22.8486ZM24.4111 48.8633C24.0238 48.8633 23.7161 48.9398 23.4883 49.0928C23.2604 49.2425 23.096 49.4704 22.9951 49.7764C22.8975 50.0791 22.8486 50.4632 22.8486 50.9287V50.9727C22.8486 51.6465 22.9609 52.1624 23.1855 52.5205C23.4102 52.8753 23.8187 53.0527 24.4111 53.0527C24.9092 53.0527 25.2819 52.8704 25.5293 52.5059C25.7799 52.1413 25.9053 51.6204 25.9053 50.9434C25.9053 50.2533 25.7816 49.734 25.5342 49.3857C25.29 49.0374 24.9157 48.8633 24.4111 48.8633ZM30.1631 48.1895C30.8011 48.1895 31.2747 48.3327 31.584 48.6191C31.8932 48.9056 32.0479 49.363 32.0479 49.9912V53.6289H31.457L31.3008 52.8379H31.2617C31.112 53.0332 30.9557 53.1976 30.793 53.3311C30.6302 53.4613 30.4414 53.5605 30.2266 53.6289C30.015 53.694 29.7546 53.7266 29.4453 53.7266C29.1198 53.7266 28.8301 53.6696 28.5762 53.5557C28.3255 53.4417 28.127 53.2692 27.9805 53.0381C27.8372 52.807 27.7656 52.514 27.7656 52.1592C27.7656 51.6253 27.9772 51.2152 28.4004 50.9287C28.8236 50.6423 29.4681 50.486 30.334 50.46L31.2568 50.4209V50.0938C31.2568 49.6315 31.1576 49.3076 30.959 49.1221C30.7604 48.9365 30.4805 48.8438 30.1191 48.8438C29.8392 48.8438 29.5723 48.8844 29.3184 48.9658C29.0645 49.0472 28.8236 49.1432 28.5957 49.2539L28.3467 48.6387C28.5876 48.515 28.8643 48.4092 29.1768 48.3213C29.4893 48.2334 29.818 48.1895 30.1631 48.1895ZM31.2471 50.9922L30.4316 51.0264C29.7643 51.0524 29.2939 51.1615 29.0205 51.3535C28.7471 51.5456 28.6104 51.8174 28.6104 52.1689C28.6104 52.4749 28.7031 52.7012 28.8887 52.8477C29.0742 52.9941 29.32 53.0674 29.626 53.0674C30.1012 53.0674 30.4902 52.9355 30.793 52.6719C31.0957 52.4082 31.2471 52.0127 31.2471 51.4854V50.9922ZM35.4463 53.0625C35.5798 53.0625 35.7165 53.0511 35.8564 53.0283C35.9964 53.0055 36.1104 52.9779 36.1982 52.9453V53.5752C36.1038 53.6175 35.972 53.6533 35.8027 53.6826C35.6367 53.7119 35.474 53.7266 35.3145 53.7266C35.0312 53.7266 34.7741 53.6777 34.543 53.5801C34.3118 53.4792 34.1263 53.3099 33.9863 53.0723C33.8496 52.8346 33.7812 52.5059 33.7812 52.0859V48.9121H33.0195V48.5166L33.7861 48.1992L34.1084 47.0371H34.5967V48.2773H36.1641V48.9121H34.5967V52.0615C34.5967 52.3968 34.6732 52.6475 34.8262 52.8135C34.9824 52.9795 35.1891 53.0625 35.4463 53.0625ZM38.0928 46.0312V48.3018C38.0928 48.432 38.0895 48.5638 38.083 48.6973C38.0765 48.8275 38.0651 48.9479 38.0488 49.0586H38.1025C38.2132 48.8698 38.3532 48.7119 38.5225 48.585C38.695 48.4548 38.8903 48.3571 39.1084 48.292C39.3265 48.2236 39.5576 48.1895 39.8018 48.1895C40.2314 48.1895 40.5895 48.2578 40.876 48.3945C41.1657 48.5312 41.3822 48.7428 41.5254 49.0293C41.6719 49.3158 41.7451 49.6868 41.7451 50.1426V53.6289H40.9443V50.1963C40.9443 49.7503 40.8418 49.4167 40.6367 49.1953C40.4349 48.974 40.124 48.8633 39.7041 48.8633C39.307 48.8633 38.9896 48.9398 38.752 49.0928C38.5176 49.2425 38.3483 49.4639 38.2441 49.7568C38.1432 50.0498 38.0928 50.4079 38.0928 50.8311V53.6289H37.2822V46.0312H38.0928ZM47.834 48.2773V53.6289H47.1699L47.0527 52.877H47.0088C46.8981 53.0625 46.7549 53.2188 46.5791 53.3457C46.4033 53.4727 46.2048 53.5671 45.9834 53.6289C45.7653 53.694 45.5326 53.7266 45.2852 53.7266C44.862 53.7266 44.5072 53.6582 44.2207 53.5215C43.9342 53.3848 43.7178 53.1732 43.5713 52.8867C43.4281 52.6003 43.3564 52.2324 43.3564 51.7832V48.2773H44.1768V51.7246C44.1768 52.1706 44.2777 52.5042 44.4795 52.7256C44.6813 52.9437 44.9889 53.0527 45.4023 53.0527C45.7995 53.0527 46.1152 52.9779 46.3496 52.8281C46.5872 52.6784 46.7581 52.4587 46.8623 52.1689C46.9665 51.876 47.0186 51.5179 47.0186 51.0947V48.2773H47.834ZM52.0625 48.1797C52.7298 48.1797 53.262 48.4092 53.6592 48.8682C54.0563 49.3271 54.2549 50.0173 54.2549 50.9385C54.2549 51.5472 54.1637 52.0583 53.9814 52.4717C53.7992 52.8851 53.542 53.1976 53.21 53.4092C52.8812 53.6208 52.4922 53.7266 52.043 53.7266C51.7598 53.7266 51.5107 53.6891 51.2959 53.6143C51.0811 53.5394 50.8971 53.4385 50.7441 53.3115C50.5911 53.1846 50.4642 53.0462 50.3633 52.8965H50.3047C50.3145 53.0234 50.3258 53.1764 50.3389 53.3555C50.3551 53.5345 50.3633 53.6908 50.3633 53.8242V56.0215H49.5479V48.2773H50.2168L50.3242 49.0684H50.3633C50.4674 48.9056 50.5944 48.7575 50.7441 48.624C50.8939 48.4873 51.0762 48.3799 51.291 48.3018C51.5091 48.2204 51.7663 48.1797 52.0625 48.1797ZM51.9209 48.8633C51.5498 48.8633 51.2503 48.9349 51.0225 49.0781C50.7979 49.2214 50.6335 49.4362 50.5293 49.7227C50.4251 50.0059 50.3698 50.3623 50.3633 50.792V50.9482C50.3633 51.4007 50.4121 51.7832 50.5098 52.0957C50.6107 52.4082 50.7751 52.6458 51.0029 52.8086C51.234 52.9714 51.5433 53.0527 51.9307 53.0527C52.2627 53.0527 52.5394 52.9632 52.7607 52.7842C52.9821 52.6051 53.1465 52.3561 53.2539 52.0371C53.3646 51.7148 53.4199 51.3454 53.4199 50.9287C53.4199 50.2972 53.2962 49.7959 53.0488 49.4248C52.8047 49.0505 52.4287 48.8633 51.9209 48.8633Z" fill="#0D29A6"/>
<defs>
<filter id="filter0_d_1694_14439" x="0" y="0" width="76" height="76" filterUnits="userSpaceOnUse" color-interpolation-filters="sRGB">
<feFlood flood-opacity="0" result="BackgroundImageFix"/>
<feColorMatrix in="SourceAlpha" type="matrix" values="0 0 0 0 0 0 0 0 0 0 0 0 0 0 0 0 0 0 127 0" result="hardAlpha"/>
<feOffset/>
<feGaussianBlur stdDeviation="1.5"/>
<feComposite in2="hardAlpha" operator="out"/>
<feColorMatrix type="matrix" values="0 0 0 0 0.409413 0 0 0 0 0.473627 0 0 0 0 0.569948 0 0 0 1 0"/>
<feBlend mode="normal" in2="BackgroundImageFix" result="effect1_dropShadow_1694_14439"/>
<feBlend mode="normal" in="SourceGraphic" in2="effect1_dropShadow_1694_14439" result="shape"/>
</filter>
</defs>
</svg>
