<svg width="76" height="76" viewBox="0 0 76 76" fill="none" xmlns="http://www.w3.org/2000/svg">
<g filter="url(#filter0_d_1694_14396)">
<rect x="3.5" y="3.5" width="69" height="69" rx="34.5" fill="white" stroke="#E8E8E8"/>
</g>
<path d="M30.8125 24.875C30.4366 24.875 30.0513 25.0073 29.7789 25.2797C29.5072 25.5506 29.375 25.9359 29.375 26.3125V34.2188C29.375 36.2241 30.5624 37.8966 32.25 38.9582V42.125H43.0312V38.9582C44.7189 37.8966 45.9062 36.2233 45.9062 34.2188V33.5H36.5625V26.3125C36.5625 25.9366 36.4303 25.5513 36.1578 25.2789C35.8869 25.0072 35.5016 24.875 35.125 24.875H30.8125ZM30.8125 26.3125H35.125V33.5H30.8125V26.3125ZM32.25 27.75V29.9062H33.6875V27.75H32.25ZM31.0367 34.9375H44.2438C43.9886 36.1788 43.2613 37.2734 41.9754 37.9699L41.5938 38.1719V40.6875H33.6875V38.1719L33.3058 37.9699C32.0193 37.2734 31.2919 36.1788 31.0367 34.9375Z" fill="#3252DF"/>
<path d="M15.4268 47.6074H17.4482C18.3402 47.6074 19.0107 47.7409 19.46 48.0078C19.9092 48.2747 20.1338 48.7288 20.1338 49.3701C20.1338 49.6468 20.0801 49.8958 19.9727 50.1172C19.8685 50.3353 19.7155 50.516 19.5137 50.6592C19.3118 50.8024 19.0628 50.9017 18.7666 50.957V51.0059C19.0791 51.0547 19.3558 51.1442 19.5967 51.2744C19.8376 51.4046 20.0264 51.5869 20.1631 51.8213C20.2998 52.0557 20.3682 52.3535 20.3682 52.7148C20.3682 53.1543 20.2656 53.5254 20.0605 53.8281C19.8587 54.1309 19.5723 54.3604 19.2012 54.5166C18.8301 54.6696 18.3906 54.7461 17.8828 54.7461H15.4268V47.6074ZM16.2568 50.6689H17.624C18.2458 50.6689 18.6755 50.5664 18.9131 50.3613C19.154 50.1562 19.2744 49.8568 19.2744 49.4629C19.2744 49.056 19.1312 48.763 18.8447 48.584C18.5615 48.4049 18.109 48.3154 17.4873 48.3154H16.2568V50.6689ZM16.2568 51.3672V54.0381H17.7412C18.376 54.0381 18.8252 53.9144 19.0889 53.667C19.3525 53.4163 19.4844 53.0794 19.4844 52.6562C19.4844 52.3861 19.4242 52.1549 19.3037 51.9629C19.1865 51.7708 18.9945 51.6243 18.7275 51.5234C18.4639 51.4193 18.1107 51.3672 17.668 51.3672H16.2568ZM23.7715 49.3066C24.4095 49.3066 24.8831 49.4499 25.1924 49.7363C25.5016 50.0228 25.6562 50.4801 25.6562 51.1084V54.7461H25.0654L24.9092 53.9551H24.8701C24.7204 54.1504 24.5641 54.3148 24.4014 54.4482C24.2386 54.5785 24.0498 54.6777 23.835 54.7461C23.6234 54.8112 23.363 54.8438 23.0537 54.8438C22.7282 54.8438 22.4385 54.7868 22.1846 54.6729C21.9339 54.5589 21.7354 54.3864 21.5889 54.1553C21.4456 53.9242 21.374 53.6312 21.374 53.2764C21.374 52.7425 21.5856 52.3324 22.0088 52.0459C22.432 51.7594 23.0765 51.6032 23.9424 51.5771L24.8652 51.5381V51.2109C24.8652 50.7487 24.766 50.4248 24.5674 50.2393C24.3688 50.0537 24.0889 49.9609 23.7275 49.9609C23.4476 49.9609 23.1807 50.0016 22.9268 50.083C22.6729 50.1644 22.432 50.2604 22.2041 50.3711L21.9551 49.7559C22.196 49.6322 22.4727 49.5264 22.7852 49.4385C23.0977 49.3506 23.4264 49.3066 23.7715 49.3066ZM24.8555 52.1094L24.04 52.1436C23.3727 52.1696 22.9023 52.2786 22.6289 52.4707C22.3555 52.6628 22.2188 52.9346 22.2188 53.2861C22.2188 53.5921 22.3115 53.8184 22.4971 53.9648C22.6826 54.1113 22.9284 54.1846 23.2344 54.1846C23.7096 54.1846 24.0986 54.0527 24.4014 53.7891C24.7041 53.5254 24.8555 53.1299 24.8555 52.6025V52.1094ZM29.0547 54.1797C29.1882 54.1797 29.3249 54.1683 29.4648 54.1455C29.6048 54.1227 29.7188 54.0951 29.8066 54.0625V54.6924C29.7122 54.7347 29.5804 54.7705 29.4111 54.7998C29.2451 54.8291 29.0824 54.8438 28.9229 54.8438C28.6396 54.8438 28.3825 54.7949 28.1514 54.6973C27.9202 54.5964 27.7347 54.4271 27.5947 54.1895C27.458 53.9518 27.3896 53.623 27.3896 53.2031V50.0293H26.6279V49.6338L27.3945 49.3164L27.7168 48.1543H28.2051V49.3945H29.7725V50.0293H28.2051V53.1787C28.2051 53.514 28.2816 53.7646 28.4346 53.9307C28.5908 54.0967 28.7975 54.1797 29.0547 54.1797ZM31.7012 47.1484V49.4189C31.7012 49.5492 31.6979 49.681 31.6914 49.8145C31.6849 49.9447 31.6735 50.0651 31.6572 50.1758H31.7109C31.8216 49.987 31.9616 49.8291 32.1309 49.7021C32.3034 49.5719 32.4987 49.4743 32.7168 49.4092C32.9349 49.3408 33.166 49.3066 33.4102 49.3066C33.8398 49.3066 34.1979 49.375 34.4844 49.5117C34.7741 49.6484 34.9906 49.86 35.1338 50.1465C35.2803 50.4329 35.3535 50.804 35.3535 51.2598V54.7461H34.5527V51.3135C34.5527 50.8675 34.4502 50.5339 34.2451 50.3125C34.0433 50.0911 33.7324 49.9805 33.3125 49.9805C32.9154 49.9805 32.598 50.057 32.3604 50.21C32.126 50.3597 31.9567 50.5811 31.8525 50.874C31.7516 51.167 31.7012 51.5251 31.7012 51.9482V54.7461H30.8906V47.1484H31.7012ZM39.4551 49.2969C39.5625 49.2969 39.6748 49.3034 39.792 49.3164C39.9092 49.3262 40.0133 49.3408 40.1045 49.3604L40.002 50.1123C39.9141 50.0895 39.8164 50.0716 39.709 50.0586C39.6016 50.0456 39.5007 50.0391 39.4062 50.0391C39.1914 50.0391 38.988 50.083 38.7959 50.1709C38.6071 50.2555 38.4411 50.3792 38.2979 50.542C38.1546 50.7015 38.0423 50.8952 37.9609 51.123C37.8796 51.3477 37.8389 51.5983 37.8389 51.875V54.7461H37.0234V49.3945H37.6973L37.7852 50.3809H37.8193C37.93 50.1823 38.0635 50.0016 38.2197 49.8389C38.376 49.6729 38.5566 49.541 38.7617 49.4434C38.9701 49.3457 39.2012 49.2969 39.4551 49.2969ZM45.7295 52.0605C45.7295 52.5 45.6725 52.8923 45.5586 53.2373C45.4447 53.5824 45.2803 53.8737 45.0654 54.1113C44.8506 54.349 44.5902 54.5312 44.2842 54.6582C43.9814 54.7819 43.638 54.8438 43.2539 54.8438C42.8958 54.8438 42.5671 54.7819 42.2676 54.6582C41.9714 54.5312 41.7142 54.349 41.4961 54.1113C41.2812 53.8737 41.1136 53.5824 40.9932 53.2373C40.876 52.8923 40.8174 52.5 40.8174 52.0605C40.8174 51.4746 40.9167 50.9766 41.1152 50.5664C41.3138 50.153 41.597 49.8389 41.9648 49.624C42.3359 49.4059 42.777 49.2969 43.2881 49.2969C43.7764 49.2969 44.2028 49.4059 44.5674 49.624C44.9352 49.8421 45.2201 50.1579 45.4219 50.5713C45.627 50.9814 45.7295 51.4779 45.7295 52.0605ZM41.6572 52.0605C41.6572 52.4902 41.7142 52.863 41.8281 53.1787C41.9421 53.4945 42.1178 53.7386 42.3555 53.9111C42.5931 54.0837 42.8991 54.1699 43.2734 54.1699C43.6445 54.1699 43.9489 54.0837 44.1865 53.9111C44.4274 53.7386 44.6048 53.4945 44.7188 53.1787C44.8327 52.863 44.8896 52.4902 44.8896 52.0605C44.8896 51.6341 44.8327 51.2663 44.7188 50.957C44.6048 50.6445 44.429 50.4036 44.1914 50.2344C43.9538 50.0651 43.6462 49.9805 43.2686 49.9805C42.7119 49.9805 42.3034 50.1644 42.043 50.5322C41.7858 50.9001 41.6572 51.4095 41.6572 52.0605ZM51.7451 52.0605C51.7451 52.5 51.6882 52.8923 51.5742 53.2373C51.4603 53.5824 51.2959 53.8737 51.0811 54.1113C50.8662 54.349 50.6058 54.5312 50.2998 54.6582C49.9971 54.7819 49.6536 54.8438 49.2695 54.8438C48.9115 54.8438 48.5827 54.7819 48.2832 54.6582C47.987 54.5312 47.7298 54.349 47.5117 54.1113C47.2969 53.8737 47.1292 53.5824 47.0088 53.2373C46.8916 52.8923 46.833 52.5 46.833 52.0605C46.833 51.4746 46.9323 50.9766 47.1309 50.5664C47.3294 50.153 47.6126 49.8389 47.9805 49.624C48.3516 49.4059 48.7926 49.2969 49.3037 49.2969C49.792 49.2969 50.2184 49.4059 50.583 49.624C50.9508 49.8421 51.2357 50.1579 51.4375 50.5713C51.6426 50.9814 51.7451 51.4779 51.7451 52.0605ZM47.6729 52.0605C47.6729 52.4902 47.7298 52.863 47.8438 53.1787C47.9577 53.4945 48.1335 53.7386 48.3711 53.9111C48.6087 54.0837 48.9147 54.1699 49.2891 54.1699C49.6602 54.1699 49.9645 54.0837 50.2021 53.9111C50.443 53.7386 50.6204 53.4945 50.7344 53.1787C50.8483 52.863 50.9053 52.4902 50.9053 52.0605C50.9053 51.6341 50.8483 51.2663 50.7344 50.957C50.6204 50.6445 50.4447 50.4036 50.207 50.2344C49.9694 50.0651 49.6618 49.9805 49.2842 49.9805C48.7275 49.9805 48.319 50.1644 48.0586 50.5322C47.8014 50.9001 47.6729 51.4095 47.6729 52.0605ZM58.957 49.2969C59.5462 49.2969 59.9906 49.4515 60.29 49.7607C60.5895 50.0667 60.7393 50.5599 60.7393 51.2402V54.7461H59.9385V51.2793C59.9385 50.8464 59.8441 50.5225 59.6553 50.3076C59.4697 50.0895 59.193 49.9805 58.8252 49.9805C58.3076 49.9805 57.9316 50.1302 57.6973 50.4297C57.4629 50.7292 57.3457 51.1702 57.3457 51.7529V54.7461H56.54V51.2793C56.54 50.9896 56.4977 50.7487 56.4131 50.5566C56.3317 50.3646 56.208 50.2214 56.042 50.127C55.8792 50.0293 55.6725 49.9805 55.4219 49.9805C55.0671 49.9805 54.7822 50.0537 54.5674 50.2002C54.3525 50.3467 54.1963 50.5648 54.0986 50.8545C54.0042 51.141 53.957 51.4941 53.957 51.9141V54.7461H53.1465V49.3945H53.8008L53.9229 50.1514H53.9668C54.0742 49.9658 54.2093 49.8096 54.3721 49.6826C54.5348 49.5557 54.7171 49.4596 54.9189 49.3945C55.1208 49.3294 55.3356 49.2969 55.5635 49.2969C55.9704 49.2969 56.3105 49.3734 56.584 49.5264C56.8607 49.6761 57.0609 49.9056 57.1846 50.2148H57.2285C57.4043 49.9056 57.6452 49.6761 57.9512 49.5264C58.2572 49.3734 58.5924 49.2969 58.957 49.2969Z" fill="#0D29A6"/>
<defs>
<filter id="filter0_d_1694_14396" x="0" y="0" width="76" height="76" filterUnits="userSpaceOnUse" color-interpolation-filters="sRGB">
<feFlood flood-opacity="0" result="BackgroundImageFix"/>
<feColorMatrix in="SourceAlpha" type="matrix" values="0 0 0 0 0 0 0 0 0 0 0 0 0 0 0 0 0 0 127 0" result="hardAlpha"/>
<feOffset/>
<feGaussianBlur stdDeviation="1.5"/>
<feComposite in2="hardAlpha" operator="out"/>
<feColorMatrix type="matrix" values="0 0 0 0 0.409413 0 0 0 0 0.473627 0 0 0 0 0.569948 0 0 0 1 0"/>
<feBlend mode="normal" in2="BackgroundImageFix" result="effect1_dropShadow_1694_14396"/>
<feBlend mode="normal" in="SourceGraphic" in2="effect1_dropShadow_1694_14396" result="shape"/>
</filter>
</defs>
</svg>
