<svg width="54" height="48" viewBox="0 0 54 48" fill="none" xmlns="http://www.w3.org/2000/svg">
<path opacity="0.21" fillRule="evenodd" clipRule="evenodd" d="M0.589844 23.9994V24.8503C0.589844 37.5529 10.8873 47.8503 23.5898 47.8503H27.2946H30.9993C43.7019 47.8503 53.9993 37.5529 53.9993 24.8503V23.9994V23.1484C53.9993 10.4459 43.7019 0.148438 30.9994 0.148438H27.2946H23.5898C10.8873 0.148438 0.589844 10.4459 0.589844 23.1484V23.9994Z" fill="#8280FF"/>
<path opacity="0.587821" fillRule="evenodd" clipRule="evenodd" d="M18.9883 18.6972C18.9883 21.039 21.1138 22.9374 23.7358 22.9374C26.3578 22.9374 28.4833 21.039 28.4833 18.6972C28.4833 16.3554 26.3578 14.457 23.7358 14.457C21.1138 14.457 18.9883 16.3554 18.9883 18.6972ZM30.8564 22.9374C30.8564 24.6937 32.4506 26.1175 34.4171 26.1175C36.3836 26.1175 37.9777 24.6937 37.9777 22.9374C37.9777 21.181 36.3836 19.7572 34.4171 19.7572C32.4506 19.7572 30.8564 21.181 30.8564 22.9374Z" fill="#8280FF"/>
<path fillRule="evenodd" clipRule="evenodd" d="M23.7129 25.0586C18.1092 25.0586 13.5116 27.6308 13.0516 32.6901C13.0265 32.9656 13.6166 33.5389 13.9142 33.5389H33.5205C34.4121 33.5389 34.426 32.8981 34.4121 32.6909C34.0643 27.4895 29.3955 25.0586 23.7129 25.0586ZM40.8911 33.539H36.3147V33.5386C36.3147 31.1527 35.4321 28.9509 33.9427 27.1794C37.9856 27.219 41.2866 29.0447 41.535 32.903C41.5451 33.0584 41.535 33.539 40.8911 33.539Z" fill="#8280FF"/>
</svg>
