<svg width="24" height="25" viewBox="0 0 24 25" fill="none" xmlns="http://www.w3.org/2000/svg">
<path d="M13.753 2.5C14.911 2.5 15.864 3.375 15.987 4.5H17.75C18.3201 4.49993 18.869 4.7163 19.2858 5.10537C19.7025 5.49444 19.956 6.02721 19.995 6.596L20 6.75V20.255C19.9998 20.825 19.7833 21.3736 19.3943 21.7901C19.0052 22.2066 18.4726 22.46 17.904 22.499L17.75 22.505H6.25C5.67987 22.5051 5.13098 22.2887 4.71425 21.8996C4.29751 21.5106 4.04402 20.9778 4.005 20.409L4 20.255V6.75C3.99993 6.17987 4.2163 5.63098 4.60537 5.21425C4.99444 4.79751 5.52721 4.54402 6.096 4.505L6.25 4.5H8.013C8.07382 3.95007 8.33539 3.44192 8.74761 3.07287C9.15983 2.70383 9.69372 2.49985 10.247 2.5H13.753ZM13.753 6.993H10.247C9.87852 6.9938 9.51554 6.90369 9.19022 6.73065C8.8649 6.55761 8.58729 6.30699 8.382 6.001L6.25 6C6.06876 6.00001 5.89366 6.06564 5.75707 6.18477C5.62048 6.30389 5.53165 6.46845 5.507 6.648L5.5 6.75V20.255C5.5 20.635 5.782 20.948 6.148 20.998L6.25 21.005H17.75C17.9314 21.005 18.1066 20.9392 18.2432 20.8199C18.3798 20.7005 18.4686 20.5357 18.493 20.356L18.5 20.255V6.75C18.5 6.56876 18.4344 6.39366 18.3152 6.25707C18.1961 6.12048 18.0316 6.03165 17.852 6.007L17.75 6H15.618C15.4128 6.30617 15.1353 6.55699 14.8099 6.73021C14.4846 6.90342 14.1216 6.99369 13.753 6.993ZM14.75 14.495C15.44 14.495 16 15.055 16 15.745V16.245C16 18.091 14.528 18.999 12 18.999C9.472 18.999 8 18.09 8 16.243V15.745C8 15.055 8.56 14.495 9.25 14.495H14.75ZM12 8.495C12.663 8.495 13.2989 8.75839 13.7678 9.22723C14.2366 9.69607 14.5 10.332 14.5 10.995C14.5 11.658 14.2366 12.2939 13.7678 12.7628C13.2989 13.2316 12.663 13.495 12 13.495C11.337 13.495 10.7011 13.2316 10.2322 12.7628C9.76339 12.2939 9.5 11.658 9.5 10.995C9.5 10.332 9.76339 9.69607 10.2322 9.22723C10.7011 8.75839 11.337 8.495 12 8.495ZM13.753 4H10.247C10.1467 3.99633 10.0466 4.01292 9.95285 4.04878C9.85908 4.08464 9.77349 4.13904 9.70122 4.20872C9.62894 4.2784 9.57145 4.36193 9.53218 4.45433C9.49291 4.54673 9.47267 4.6461 9.47267 4.7465C9.47267 4.8469 9.49291 4.94627 9.53218 5.03867C9.57145 5.13107 9.62894 5.2146 9.70122 5.28428C9.77349 5.35397 9.85908 5.40836 9.95285 5.44422C10.0466 5.48008 10.1467 5.49667 10.247 5.493H13.753C13.8533 5.49667 13.9534 5.48008 14.0471 5.44422C14.1409 5.40836 14.2265 5.35397 14.2988 5.28428C14.3711 5.2146 14.4286 5.13107 14.4678 5.03867C14.5071 4.94627 14.5273 4.8469 14.5273 4.7465C14.5273 4.6461 14.5071 4.54673 14.4678 4.45433C14.4286 4.36193 14.3711 4.2784 14.2988 4.20872C14.2265 4.13904 14.1409 4.08464 14.0471 4.04878C13.9534 4.01292 13.8533 3.99633 13.753 4Z" fill="#5D6679"/>
</svg>
