<svg width="76" height="76" viewBox="0 0 76 76" fill="none" xmlns="http://www.w3.org/2000/svg">
<g filter="url(#filter0_d_1694_14410)">
<rect x="3.5" y="3.5" width="69" height="69" rx="34.5" fill="white" stroke="#E8E8E8"/>
</g>
<path d="M37.1667 29.043C38.8333 26.543 35.5 26.543 37.1667 24.043M40.9167 29.043C42.5833 26.543 39.25 26.543 40.9167 24.043M33 30.7096H33.0083M33 34.043H33.0083M36.3333 35.7096V32.3763M39.6667 35.7096V32.3763M43 35.7096V32.3763" stroke="#3252DF" stroke-width="2" stroke-linecap="round" stroke-linejoin="round"/>
<path d="M44.6667 27.375C45.1088 27.375 45.5327 27.5506 45.8453 27.8632C46.1578 28.1757 46.3334 28.5996 46.3334 29.0417V37.375C46.3334 37.817 46.1578 38.241 45.8453 38.5535C45.5327 38.8661 45.1088 39.0417 44.6667 39.0417H31.3334C30.8914 39.0417 30.4675 38.8661 30.1549 38.5535C29.8423 38.241 29.6667 37.817 29.6667 37.375V29.0417C29.6667 28.5996 29.8423 28.1757 30.1549 27.8632C30.4675 27.5506 30.8914 27.375 31.3334 27.375H33.8334M32.1667 39.0417V40.7083M43.8334 39.0417V40.7083" stroke="#3252DF" stroke-width="2" stroke-linecap="round" stroke-linejoin="round"/>
<path d="M26.0957 53.6289H25.2656V50.2646H21.5156V53.6289H20.6855V46.4902H21.5156V49.5322H25.2656V46.4902H26.0957V53.6289ZM29.9971 48.1797C30.4528 48.1797 30.8434 48.2806 31.1689 48.4824C31.4945 48.6842 31.7435 48.9674 31.916 49.332C32.0885 49.6934 32.1748 50.1165 32.1748 50.6016V51.1045H28.4785C28.4883 51.7327 28.6445 52.2113 28.9473 52.54C29.25 52.8688 29.6764 53.0332 30.2266 53.0332C30.5651 53.0332 30.8646 53.0023 31.125 52.9404C31.3854 52.8786 31.6556 52.7874 31.9355 52.667V53.3799C31.6654 53.5003 31.3968 53.5882 31.1299 53.6436C30.8662 53.6989 30.5537 53.7266 30.1924 53.7266C29.6781 53.7266 29.2288 53.6224 28.8447 53.4141C28.4639 53.2025 28.1676 52.8932 27.9561 52.4863C27.7445 52.0794 27.6387 51.5814 27.6387 50.9922C27.6387 50.416 27.7347 49.918 27.9268 49.498C28.1221 49.0749 28.3955 48.7493 28.7471 48.5215C29.1019 48.2936 29.5186 48.1797 29.9971 48.1797ZM29.9873 48.8438C29.5544 48.8438 29.2093 48.9854 28.9521 49.2686C28.695 49.5518 28.542 49.9473 28.4932 50.4551H31.3252C31.3219 50.1361 31.2715 49.8561 31.1738 49.6152C31.0794 49.3711 30.9346 49.1823 30.7393 49.0488C30.5439 48.9121 30.2933 48.8438 29.9873 48.8438ZM35.5537 48.1895C36.1917 48.1895 36.6654 48.3327 36.9746 48.6191C37.2839 48.9056 37.4385 49.363 37.4385 49.9912V53.6289H36.8477L36.6914 52.8379H36.6523C36.5026 53.0332 36.3464 53.1976 36.1836 53.3311C36.0208 53.4613 35.832 53.5605 35.6172 53.6289C35.4056 53.694 35.1452 53.7266 34.8359 53.7266C34.5104 53.7266 34.2207 53.6696 33.9668 53.5557C33.7161 53.4417 33.5176 53.2692 33.3711 53.0381C33.2279 52.807 33.1562 52.514 33.1562 52.1592C33.1562 51.6253 33.3678 51.2152 33.791 50.9287C34.2142 50.6423 34.8587 50.486 35.7246 50.46L36.6475 50.4209V50.0938C36.6475 49.6315 36.5482 49.3076 36.3496 49.1221C36.151 48.9365 35.8711 48.8438 35.5098 48.8438C35.2298 48.8438 34.9629 48.8844 34.709 48.9658C34.4551 49.0472 34.2142 49.1432 33.9863 49.2539L33.7373 48.6387C33.9782 48.515 34.2549 48.4092 34.5674 48.3213C34.8799 48.2334 35.2087 48.1895 35.5537 48.1895ZM36.6377 50.9922L35.8223 51.0264C35.1549 51.0524 34.6846 51.1615 34.4111 51.3535C34.1377 51.5456 34.001 51.8174 34.001 52.1689C34.001 52.4749 34.0938 52.7012 34.2793 52.8477C34.4648 52.9941 34.7106 53.0674 35.0166 53.0674C35.4919 53.0674 35.8809 52.9355 36.1836 52.6719C36.4863 52.4082 36.6377 52.0127 36.6377 51.4854V50.9922ZM40.8369 53.0625C40.9704 53.0625 41.1071 53.0511 41.2471 53.0283C41.387 53.0055 41.501 52.9779 41.5889 52.9453V53.5752C41.4945 53.6175 41.3626 53.6533 41.1934 53.6826C41.0273 53.7119 40.8646 53.7266 40.7051 53.7266C40.4219 53.7266 40.1647 53.6777 39.9336 53.5801C39.7025 53.4792 39.5169 53.3099 39.377 53.0723C39.2402 52.8346 39.1719 52.5059 39.1719 52.0859V48.9121H38.4102V48.5166L39.1768 48.1992L39.499 47.0371H39.9873V48.2773H41.5547V48.9121H39.9873V52.0615C39.9873 52.3968 40.0638 52.6475 40.2168 52.8135C40.373 52.9795 40.5798 53.0625 40.8369 53.0625ZM44.7334 48.1797C45.1891 48.1797 45.5798 48.2806 45.9053 48.4824C46.2308 48.6842 46.4798 48.9674 46.6523 49.332C46.8249 49.6934 46.9111 50.1165 46.9111 50.6016V51.1045H43.2148C43.2246 51.7327 43.3809 52.2113 43.6836 52.54C43.9863 52.8688 44.4128 53.0332 44.9629 53.0332C45.3014 53.0332 45.6009 53.0023 45.8613 52.9404C46.1217 52.8786 46.3919 52.7874 46.6719 52.667V53.3799C46.4017 53.5003 46.1331 53.5882 45.8662 53.6436C45.6025 53.6989 45.29 53.7266 44.9287 53.7266C44.4144 53.7266 43.9652 53.6224 43.5811 53.4141C43.2002 53.2025 42.904 52.8932 42.6924 52.4863C42.4808 52.0794 42.375 51.5814 42.375 50.9922C42.375 50.416 42.471 49.918 42.6631 49.498C42.8584 49.0749 43.1318 48.7493 43.4834 48.5215C43.8382 48.2936 44.2549 48.1797 44.7334 48.1797ZM44.7236 48.8438C44.2907 48.8438 43.9456 48.9854 43.6885 49.2686C43.4313 49.5518 43.2783 49.9473 43.2295 50.4551H46.0615C46.0583 50.1361 46.0078 49.8561 45.9102 49.6152C45.8158 49.3711 45.6709 49.1823 45.4756 49.0488C45.2803 48.9121 45.0296 48.8438 44.7236 48.8438ZM50.7197 48.1797C50.8271 48.1797 50.9395 48.1862 51.0566 48.1992C51.1738 48.209 51.278 48.2236 51.3691 48.2432L51.2666 48.9951C51.1787 48.9723 51.0811 48.9544 50.9736 48.9414C50.8662 48.9284 50.7653 48.9219 50.6709 48.9219C50.4561 48.9219 50.2526 48.9658 50.0605 49.0537C49.8717 49.1383 49.7057 49.262 49.5625 49.4248C49.4193 49.5843 49.307 49.778 49.2256 50.0059C49.1442 50.2305 49.1035 50.4811 49.1035 50.7578V53.6289H48.2881V48.2773H48.9619L49.0498 49.2637H49.084C49.1947 49.0651 49.3281 48.8844 49.4844 48.7217C49.6406 48.5557 49.8213 48.4238 50.0264 48.3262C50.2347 48.2285 50.4658 48.1797 50.7197 48.1797ZM55.8418 52.1641C55.8418 52.5059 55.7555 52.7939 55.583 53.0283C55.4137 53.2594 55.1696 53.4336 54.8506 53.5508C54.5348 53.668 54.1572 53.7266 53.7178 53.7266C53.3434 53.7266 53.0195 53.6973 52.7461 53.6387C52.4727 53.5801 52.2334 53.4971 52.0283 53.3896V52.6426C52.2464 52.75 52.5068 52.8477 52.8096 52.9355C53.1123 53.0234 53.4215 53.0674 53.7373 53.0674C54.1995 53.0674 54.5348 52.9925 54.7432 52.8428C54.9515 52.693 55.0557 52.4896 55.0557 52.2324C55.0557 52.0859 55.0133 51.9574 54.9287 51.8467C54.8473 51.7327 54.709 51.6237 54.5137 51.5195C54.3184 51.4121 54.0482 51.2949 53.7031 51.168C53.3613 51.0378 53.0651 50.9092 52.8145 50.7822C52.5671 50.652 52.375 50.4941 52.2383 50.3086C52.1048 50.123 52.0381 49.8822 52.0381 49.5859C52.0381 49.1335 52.2204 48.7868 52.585 48.5459C52.9528 48.3018 53.4346 48.1797 54.0303 48.1797C54.3525 48.1797 54.6536 48.2122 54.9336 48.2773C55.2168 48.3392 55.4805 48.4238 55.7246 48.5312L55.4512 49.1807C55.2298 49.0863 54.9938 49.0065 54.7432 48.9414C54.4925 48.8763 54.237 48.8438 53.9766 48.8438C53.6022 48.8438 53.3141 48.9056 53.1123 49.0293C52.9137 49.153 52.8145 49.3223 52.8145 49.5371C52.8145 49.7031 52.86 49.8398 52.9512 49.9473C53.0456 50.0547 53.1953 50.1556 53.4004 50.25C53.6055 50.3444 53.8757 50.4551 54.2109 50.582C54.5462 50.7057 54.8359 50.8343 55.0801 50.9678C55.3242 51.098 55.5114 51.2575 55.6416 51.4463C55.7751 51.6318 55.8418 51.8711 55.8418 52.1641Z" fill="#0D29A6"/>
<defs>
<filter id="filter0_d_1694_14410" x="0" y="0" width="76" height="76" filterUnits="userSpaceOnUse" color-interpolation-filters="sRGB">
<feFlood flood-opacity="0" result="BackgroundImageFix"/>
<feColorMatrix in="SourceAlpha" type="matrix" values="0 0 0 0 0 0 0 0 0 0 0 0 0 0 0 0 0 0 127 0" result="hardAlpha"/>
<feOffset/>
<feGaussianBlur stdDeviation="1.5"/>
<feComposite in2="hardAlpha" operator="out"/>
<feColorMatrix type="matrix" values="0 0 0 0 0.409413 0 0 0 0 0.473627 0 0 0 0 0.569948 0 0 0 1 0"/>
<feBlend mode="normal" in2="BackgroundImageFix" result="effect1_dropShadow_1694_14410"/>
<feBlend mode="normal" in="SourceGraphic" in2="effect1_dropShadow_1694_14410" result="shape"/>
</filter>
</defs>
</svg>
