<svg width="24" height="25" viewBox="0 0 24 25" fill="none" xmlns="http://www.w3.org/2000/svg">
<path d="M12 21.5C9.9 21.5 8.04167 20.8627 6.425 19.588C4.80833 18.3133 3.75833 16.684 3.275 14.7C3.20833 14.45 3.25833 14.221 3.425 14.013C3.59167 13.805 3.81667 13.684 4.1 13.65C4.36667 13.6167 4.60833 13.6667 4.825 13.8C5.04167 13.9333 5.19167 14.1333 5.275 14.4C5.675 15.9 6.5 17.125 7.75 18.075C9 19.025 10.4167 19.5 12 19.5C13.95 19.5 15.6043 18.821 16.963 17.463C18.3217 16.105 19.0007 14.4507 19 12.5C18.9993 10.5493 18.3203 8.89533 16.963 7.538C15.6057 6.18067 13.9513 5.50133 12 5.5C10.85 5.5 9.775 5.76667 8.775 6.3C7.775 6.83333 6.93333 7.56667 6.25 8.5H8C8.28333 8.5 8.521 8.596 8.713 8.788C8.905 8.98 9.00067 9.21733 9 9.5C8.99933 9.78267 8.90333 10.0203 8.712 10.213C8.52067 10.4057 8.28333 10.5013 8 10.5H4C3.71667 10.5 3.47933 10.404 3.288 10.212C3.09667 10.02 3.00067 9.78267 3 9.5V5.5C3 5.21667 3.096 4.97933 3.288 4.788C3.48 4.59667 3.71733 4.50067 4 4.5C4.28267 4.49933 4.52033 4.59533 4.713 4.788C4.90567 4.98067 5.00133 5.218 5 5.5V6.85C5.85 5.78333 6.88767 4.95833 8.113 4.375C9.33833 3.79167 10.634 3.5 12 3.5C13.25 3.5 14.421 3.73767 15.513 4.213C16.605 4.68833 17.555 5.32967 18.363 6.137C19.171 6.94433 19.8127 7.89433 20.288 8.987C20.7633 10.0797 21.0007 11.2507 21 12.5C20.9993 13.7493 20.762 14.9203 20.288 16.013C19.814 17.1057 19.1723 18.0557 18.363 18.863C17.5537 19.6703 16.6037 20.312 15.513 20.788C14.4223 21.264 13.2513 21.5013 12 21.5ZM13 12.1L15.5 14.6C15.6833 14.7833 15.775 15.0167 15.775 15.3C15.775 15.5833 15.6833 15.8167 15.5 16C15.3167 16.1833 15.0833 16.275 14.8 16.275C14.5167 16.275 14.2833 16.1833 14.1 16L11.3 13.2C11.2 13.1 11.125 12.9877 11.075 12.863C11.025 12.7383 11 12.609 11 12.475V8.5C11 8.21667 11.096 7.97933 11.288 7.788C11.48 7.59667 11.7173 7.50067 12 7.5C12.2827 7.49933 12.5203 7.59533 12.713 7.788C12.9057 7.98067 13.0013 8.218 13 8.5V12.1Z" fill="#5D6679"/>
</svg>
