<svg width="39" height="40" viewBox="0 0 39 40" fill="none" xmlns="http://www.w3.org/2000/svg">
<path d="M19.8547 39.2598H19.7716C9.3804 39.2598 0.92627 30.6385 0.92627 20.0419V19.9571C0.92627 9.36051 9.3804 0.739258 19.7716 0.739258H19.8547C30.2459 0.739258 38.7001 9.36051 38.7001 19.9571V20.0419C38.7001 30.6385 30.2459 39.2598 19.8547 39.2598ZM19.7716 2.04314C10.0849 2.04314 2.20487 10.0789 2.20487 19.9571V20.0419C2.20487 29.9201 10.0849 37.9559 19.7716 37.9559H19.8547C29.5414 37.9559 37.4215 29.9201 37.4215 20.0419V19.9571C37.4215 10.0789 29.5414 2.04314 19.8547 2.04314H19.7716Z" fill="url(#paint0_linear_1861_12665)"/>
<path d="M25.4573 8.96338L14.1647 8.96338C11.0449 8.96338 8.50684 11.5515 8.50684 14.733L8.50684 25.2682C8.50684 28.4496 11.0449 31.0378 14.1647 31.0378L25.4573 31.0378C28.5771 31.0378 31.1151 28.4496 31.1151 25.2682L31.1151 14.733C31.1151 11.5515 28.5771 8.96338 25.4573 8.96338ZM10.5027 14.733C10.5027 12.6742 12.1457 10.9987 14.1647 10.9987L25.4573 10.9987C27.4762 10.9987 29.1192 12.6742 29.1192 14.733L29.1192 25.2682C29.1192 27.327 27.4762 29.0025 25.4573 29.0025L14.1647 29.0025C12.1457 29.0025 10.5027 27.327 10.5027 25.2682L10.5027 14.733Z" fill="url(#paint1_linear_1861_12665)"/>
<path d="M19.8111 25.3662C22.7122 25.3662 25.0738 22.9593 25.0738 19.9995C25.0738 17.0397 22.7135 14.6328 19.8111 14.6328C16.9086 14.6328 14.5483 17.0397 14.5483 19.9995C14.5483 22.9593 16.9086 25.3662 19.8111 25.3662ZM19.8111 16.6694C21.6126 16.6694 23.0779 18.1637 23.0779 20.0008C23.0779 21.838 21.6126 23.3322 19.8111 23.3322C18.0095 23.3322 16.5442 21.838 16.5442 20.0008C16.5442 18.1637 18.0095 16.6694 19.8111 16.6694Z" fill="url(#paint2_linear_1861_12665)"/>
<path d="M25.563 15.5C26.3442 15.5 26.981 14.8518 26.981 14.0537C26.981 13.2556 26.3455 12.6074 25.563 12.6074C24.7805 12.6074 24.145 13.2556 24.145 14.0537C24.145 14.8518 24.7805 15.5 25.563 15.5Z" fill="white"/>
<defs>
<linearGradient id="paint0_linear_1861_12665" x1="6.4524" y1="33.6244" x2="33.697" y2="6.90797" gradientUnits="userSpaceOnUse">
<stop offset="1" stop-color="white"/>
</linearGradient>
<linearGradient id="paint1_linear_1861_12665" x1="10.4056" y1="29.5905" x2="29.583" y2="10.7859" gradientUnits="userSpaceOnUse">
<stop offset="1" stop-color="white"/>
</linearGradient>
<linearGradient id="paint2_linear_1861_12665" x1="16.0916" y1="23.7938" x2="23.6748" y2="16.3562" gradientUnits="userSpaceOnUse">
<stop offset="1" stop-color="white"/>
</linearGradient>
</defs>
</svg>
