<svg width="39" height="40" viewBox="0 0 39 40" fill="none" xmlns="http://www.w3.org/2000/svg">
<path d="M19.8617 39.2598H19.7786C9.38016 39.2598 0.920166 30.6385 0.920166 20.0419V19.9571C0.920166 9.36051 9.38016 0.739258 19.7786 0.739258L19.8617 0.739258C30.2602 0.739258 38.7202 9.36051 38.7202 19.9571V20.0419C38.7202 30.6385 30.2602 39.2598 19.8617 39.2598ZM19.7786 2.04314C10.0852 2.04314 2.19966 10.0789 2.19966 19.9571V20.0419C2.19966 29.9201 10.0852 37.9559 19.7786 37.9559H19.8617C29.5552 37.9559 37.4407 29.9201 37.4407 20.0419V19.9571C37.4407 10.0789 29.5552 2.04314 19.8617 2.04314H19.7786Z" fill="white"/>
<path d="M23.3746 25.4434C18.7006 25.4434 14.898 21.5671 14.8967 16.8043C14.898 15.597 15.8627 14.6152 17.045 14.6152C17.1665 14.6152 17.2868 14.6257 17.402 14.6465C17.6553 14.6896 17.8959 14.7769 18.1172 14.9086C18.1492 14.9281 18.1709 14.9594 18.1761 14.9959L18.6699 18.1681C18.6763 18.2046 18.6648 18.2424 18.6405 18.2698C18.368 18.5775 18.02 18.7992 17.6323 18.91L17.4455 18.9634L17.5158 19.1473C18.153 20.8005 19.4504 22.1213 21.0741 22.7732L21.2545 22.8462L21.307 22.6558C21.4157 22.2608 21.6332 21.9061 21.9352 21.6284C21.9569 21.6076 21.9864 21.5971 22.0158 21.5971C22.0222 21.5971 22.0286 21.5971 22.0363 21.5984L25.1493 22.1017C25.1864 22.1082 25.2171 22.1291 25.2363 22.1617C25.3642 22.3872 25.45 22.6337 25.4935 22.8918C25.5139 23.0065 25.5229 23.1278 25.5229 23.2543C25.5229 24.4603 24.5594 25.4421 23.3746 25.4434Z" fill="white"/>
<path d="M31.6657 18.9558C31.4136 16.0534 30.1086 13.361 27.991 11.3753C25.8607 9.37778 23.0969 8.27734 20.2066 8.27734C13.8629 8.27734 8.7014 13.537 8.7014 20.0015C8.7014 22.1711 9.28867 24.2846 10.4006 26.1256L7.9209 31.7191L15.8601 30.8572C17.2407 31.4335 18.7019 31.7256 20.2053 31.7256C20.6007 31.7256 21.0063 31.7047 21.4131 31.6617C21.7714 31.6226 22.1335 31.5652 22.4892 31.4922C27.8016 30.3983 31.6798 25.5936 31.7105 20.064V20.0015C31.7105 19.6494 31.6951 19.2974 31.6644 18.9571L31.6657 18.9558ZM16.1659 28.4021L11.7735 28.8793L13.0849 25.9183L12.8226 25.5597C12.8034 25.5337 12.7843 25.5076 12.7625 25.4776C11.6238 23.8752 11.0224 21.982 11.0224 20.0028C11.0224 14.8422 15.1423 10.6438 20.2066 10.6438C24.9509 10.6438 28.9724 14.4158 29.3601 19.2309C29.3805 19.4891 29.392 19.7485 29.392 20.0041C29.392 20.0771 29.3908 20.1488 29.3895 20.2257C29.2922 24.5427 26.3328 28.2091 22.1923 29.1427C21.8763 29.2144 21.5526 29.2691 21.2302 29.3043C20.8949 29.3435 20.5508 29.363 20.2091 29.363C18.9923 29.363 17.8101 29.1231 16.6931 28.6485C16.569 28.5977 16.4474 28.5429 16.3336 28.4868L16.1672 28.4047L16.1659 28.4021Z" fill="white"/>
</svg>
