<svg width="39" height="40" viewBox="0 0 39 40" fill="none" xmlns="http://www.w3.org/2000/svg">
<path d="M19.7014 39.2598H19.6183C9.22707 39.2598 0.772949 30.6385 0.772949 20.0419V19.9571C0.772949 9.36051 9.22707 0.739258 19.6183 0.739258H19.7014C30.0926 0.739258 38.5467 9.36051 38.5467 19.9571V20.0419C38.5467 30.6385 30.0926 39.2598 19.7014 39.2598ZM19.6183 2.04314C9.93158 2.04314 2.05155 10.0789 2.05155 19.9571V20.0419C2.05155 29.9201 9.93158 37.9559 19.6183 37.9559H19.7014C29.3881 37.9559 37.2681 29.9201 37.2681 20.0419V19.9571C37.2681 10.0789 29.3881 2.04314 19.7014 2.04314H19.6183Z" fill="white"/>
<path d="M22.1991 15.681L22.1991 19.7347H27.1166L26.338 25.1953H22.1991L22.1991 37.7763C21.3693 37.8936 20.5203 37.9549 19.6585 37.9549C18.6638 37.9549 17.6869 37.8741 16.7356 37.7176L16.7356 25.1953H12.2004V19.7347H16.7356L16.7356 14.7749C16.7356 11.6977 19.1816 9.20215 22.2004 9.20215V9.20474C22.2093 9.20474 22.217 9.20215 22.226 9.20215H27.1179V13.9247H23.9214C22.9714 13.9247 22.2004 14.711 22.2004 15.6797L22.1991 15.681Z" fill="white"/>
</svg>
