<svg width="76" height="76" viewBox="0 0 76 76" fill="none" xmlns="http://www.w3.org/2000/svg">
<g filter="url(#filter0_d_1694_14351)">
<rect x="3.5" y="3.5" width="69" height="69" rx="34.5" fill="white" stroke="#E8E8E8"/>
</g>
<path d="M29.6667 30.7083H46.3334M35.5001 25.7083V27.375M39.6667 24.875V27.375M43.8334 25.7083V27.375M45.5001 37.375V30.7083H33.8334V37.375C33.8334 38.038 34.0968 38.6739 34.5656 39.1428C35.0345 39.6116 35.6704 39.875 36.3334 39.875H43.0001C43.6631 39.875 44.299 39.6116 44.7678 39.1428C45.2367 38.6739 45.5001 38.038 45.5001 37.375Z" stroke="#3252DF" stroke-width="2" stroke-linecap="round" stroke-linejoin="round"/>
<path d="M26.6768 54.375H25.6954L23.1221 50.9033L22.3604 51.5869V54.375H21.5303V47.2363H22.3604V50.7959C22.546 50.5843 22.7364 50.3743 22.9317 50.166C23.127 49.9544 23.3207 49.7412 23.5127 49.5264L25.5977 47.2363H26.5694L23.7276 50.332L26.6768 54.375ZM28.3419 49.0234V54.375H27.5313V49.0234H28.3419ZM27.9463 47.0215C28.0798 47.0215 28.1937 47.0654 28.2881 47.1533C28.3858 47.238 28.4346 47.3714 28.4346 47.5537C28.4346 47.7327 28.3858 47.8662 28.2881 47.9541C28.1937 48.042 28.0798 48.0859 27.9463 48.0859C27.8064 48.0859 27.6892 48.042 27.5948 47.9541C27.5036 47.8662 27.4581 47.7327 27.4581 47.5537C27.4581 47.3714 27.5036 47.238 27.5948 47.1533C27.6892 47.0654 27.8064 47.0215 27.9463 47.0215ZM31.7891 53.8086C31.9226 53.8086 32.0593 53.7972 32.1993 53.7744C32.3392 53.7516 32.4532 53.724 32.5411 53.6914V54.3213C32.4467 54.3636 32.3148 54.3994 32.1456 54.4287C31.9795 54.458 31.8168 54.4727 31.6573 54.4727C31.3741 54.4727 31.1169 54.4238 30.8858 54.3262C30.6547 54.2253 30.4691 54.056 30.3292 53.8184C30.1924 53.5807 30.1241 53.252 30.1241 52.832V49.6582H29.3624V49.2627L30.129 48.9453L30.4512 47.7832H30.9395V49.0234H32.5069V49.6582H30.9395V52.8076C30.9395 53.1429 31.016 53.3936 31.169 53.5596C31.3252 53.7256 31.532 53.8086 31.7891 53.8086ZM35.7686 54.4727C35.2868 54.4727 34.862 54.3734 34.4942 54.1748C34.1264 53.9762 33.8399 53.6735 33.6348 53.2666C33.4297 52.8597 33.3272 52.347 33.3272 51.7285C33.3272 51.0807 33.4346 50.5518 33.6495 50.1416C33.8676 49.7282 34.167 49.4222 34.5479 49.2236C34.9288 49.0251 35.3617 48.9258 35.8467 48.9258C36.1137 48.9258 36.3708 48.9535 36.6182 49.0088C36.8689 49.0609 37.0739 49.1276 37.2335 49.209L36.9893 49.8877C36.8266 49.8226 36.6377 49.764 36.4229 49.7119C36.2113 49.6598 36.0127 49.6338 35.8272 49.6338C35.4561 49.6338 35.1469 49.7135 34.8995 49.873C34.6553 50.0326 34.4714 50.2669 34.3477 50.5762C34.2273 50.8854 34.167 51.2663 34.167 51.7188C34.167 52.1517 34.2256 52.5212 34.3428 52.8271C34.4633 53.1331 34.6407 53.3675 34.8751 53.5303C35.1127 53.6898 35.4089 53.7695 35.7637 53.7695C36.0469 53.7695 36.3025 53.7402 36.5303 53.6816C36.7582 53.6198 36.9649 53.5482 37.1504 53.4668V54.1895C36.9714 54.2806 36.7712 54.3506 36.5499 54.3994C36.3318 54.4482 36.0713 54.4727 35.7686 54.4727ZM39.2305 46.7773V49.0479C39.2305 49.1781 39.2273 49.3099 39.2208 49.4434C39.2142 49.5736 39.2029 49.694 39.1866 49.8047H39.2403C39.351 49.6159 39.4909 49.458 39.6602 49.3311C39.8327 49.2008 40.028 49.1032 40.2461 49.0381C40.4642 48.9697 40.6954 48.9355 40.9395 48.9355C41.3692 48.9355 41.7273 49.0039 42.0137 49.1406C42.3034 49.2773 42.5199 49.4889 42.6631 49.7754C42.8096 50.0618 42.8829 50.4329 42.8829 50.8887V54.375H42.0821V50.9424C42.0821 50.4964 41.9795 50.1628 41.7745 49.9414C41.5726 49.7201 41.2618 49.6094 40.8419 49.6094C40.4447 49.6094 40.1273 49.6859 39.8897 49.8389C39.6553 49.9886 39.4861 50.21 39.3819 50.5029C39.281 50.7959 39.2305 51.154 39.2305 51.5771V54.375H38.42V46.7773H39.2305ZM46.6133 48.9258C47.0691 48.9258 47.4597 49.0267 47.7852 49.2285C48.1107 49.4303 48.3598 49.7135 48.5323 50.0781C48.7048 50.4395 48.7911 50.8626 48.7911 51.3477V51.8506H45.0948C45.1045 52.4788 45.2608 52.9574 45.5635 53.2861C45.8663 53.6149 46.2927 53.7793 46.8428 53.7793C47.1814 53.7793 47.4808 53.7484 47.7413 53.6865C48.0017 53.6247 48.2719 53.5335 48.5518 53.4131V54.126C48.2816 54.2464 48.0131 54.3343 47.7461 54.3896C47.4825 54.445 47.17 54.4727 46.8086 54.4727C46.2943 54.4727 45.8451 54.3685 45.461 54.1602C45.0801 53.9486 44.7839 53.6393 44.5723 53.2324C44.3607 52.8255 44.2549 52.3275 44.2549 51.7383C44.2549 51.1621 44.351 50.6641 44.543 50.2441C44.7383 49.821 45.0118 49.4954 45.3633 49.2676C45.7182 49.0397 46.1348 48.9258 46.6133 48.9258ZM46.6036 49.5898C46.1706 49.5898 45.8256 49.7314 45.5684 50.0146C45.3113 50.2979 45.1583 50.6934 45.1094 51.2012H47.9415C47.9382 50.8822 47.8877 50.6022 47.7901 50.3613C47.6957 50.1172 47.5508 49.9284 47.3555 49.7949C47.1602 49.6582 46.9096 49.5898 46.6036 49.5898ZM52.7022 48.9258C53.337 48.9258 53.8171 49.082 54.1426 49.3945C54.4682 49.7038 54.6309 50.2018 54.6309 50.8887V54.375H53.8301V50.9424C53.8301 50.4964 53.7276 50.1628 53.5225 49.9414C53.3207 49.7201 53.0098 49.6094 52.5899 49.6094C51.9974 49.6094 51.5808 49.777 51.3399 50.1123C51.099 50.4476 50.9786 50.9342 50.9786 51.5723V54.375H50.168V49.0234H50.8223L50.9444 49.7949H50.9883C51.1023 49.6061 51.2471 49.4482 51.4229 49.3213C51.5987 49.1911 51.7956 49.0934 52.0137 49.0283C52.2318 48.96 52.4613 48.9258 52.7022 48.9258Z" fill="#0D29A6"/>
<defs>
<filter id="filter0_d_1694_14351" x="0" y="0" width="76" height="76" filterUnits="userSpaceOnUse" color-interpolation-filters="sRGB">
<feFlood flood-opacity="0" result="BackgroundImageFix"/>
<feColorMatrix in="SourceAlpha" type="matrix" values="0 0 0 0 0 0 0 0 0 0 0 0 0 0 0 0 0 0 127 0" result="hardAlpha"/>
<feOffset/>
<feGaussianBlur stdDeviation="1.5"/>
<feComposite in2="hardAlpha" operator="out"/>
<feColorMatrix type="matrix" values="0 0 0 0 0.409413 0 0 0 0 0.473627 0 0 0 0 0.569948 0 0 0 1 0"/>
<feBlend mode="normal" in2="BackgroundImageFix" result="effect1_dropShadow_1694_14351"/>
<feBlend mode="normal" in="SourceGraphic" in2="effect1_dropShadow_1694_14351" result="shape"/>
</filter>
</defs>
</svg>
