<svg width="76" height="76" viewBox="0 0 76 76" fill="none" xmlns="http://www.w3.org/2000/svg">
<g filter="url(#filter0_d_1694_14418)">
<rect x="3.5" y="3.5" width="69" height="69" rx="34.5" fill="white" stroke="#E8E8E8"/>
</g>
<path d="M44.4285 23.0898H31.5714C31.1925 23.0898 30.8292 23.2404 30.5612 23.5083C30.2933 23.7762 30.1428 24.1395 30.1428 24.5184V40.2327C30.1428 40.6116 30.2933 40.9749 30.5612 41.2429C30.8292 41.5108 31.1925 41.6613 31.5714 41.6613H44.4285C44.8074 41.6613 45.1708 41.5108 45.4387 41.2429C45.7066 40.9749 45.8571 40.6116 45.8571 40.2327V24.5184C45.8571 24.1395 45.7066 23.7762 45.4387 23.5083C45.1708 23.2404 44.8074 23.0898 44.4285 23.0898Z" stroke="#3252DF" strokeWidth="2" strokeLinecap="round" strokeLinejoin="round"/>
<path d="M42.2271 35.2321H41.0257C39.9757 35.2321 38.94 34.9879 38 34.5179C37.0612 34.0463 36.0248 33.8017 34.9743 33.8036H33.7743M30.1428 27.375H45.8571M42.2857 34.5179C42.2857 35.0807 42.1748 35.638 41.9594 36.1579C41.7441 36.6779 41.4284 37.1504 41.0304 37.5483C40.6325 37.9463 40.16 38.262 39.64 38.4773C39.1201 38.6927 38.5628 38.8036 38 38.8036C37.4372 38.8036 36.8799 38.6927 36.3599 38.4773C35.8399 38.262 35.3675 37.9463 34.9695 37.5483C34.5715 37.1504 34.2559 36.6779 34.0405 36.1579C33.8251 35.638 33.7143 35.0807 33.7143 34.5179C33.7143 33.3812 34.1658 32.2911 34.9695 31.4874C35.7732 30.6837 36.8633 30.2321 38 30.2321C39.1366 30.2321 40.2267 30.6837 41.0304 31.4874C41.8341 32.2911 42.2857 33.3812 42.2857 34.5179Z" stroke="#3252DF" strokeWidth="2" strokeLinecap="round" strokeLinejoin="round"/>
<path d="M19.8408 53.6289V46.4902H20.6709V52.8867H23.8398V53.6289H19.8408ZM26.9453 48.1895C27.5833 48.1895 28.057 48.3327 28.3662 48.6191C28.6755 48.9056 28.8301 49.363 28.8301 49.9912V53.6289H28.2393L28.083 52.8379H28.0439C27.8942 53.0332 27.738 53.1976 27.5752 53.3311C27.4124 53.4613 27.2236 53.5605 27.0088 53.6289C26.7972 53.694 26.5368 53.7266 26.2275 53.7266C25.902 53.7266 25.6123 53.6696 25.3584 53.5557C25.1077 53.4417 24.9092 53.2692 24.7627 53.0381C24.6195 52.807 24.5479 52.514 24.5479 52.1592C24.5479 51.6253 24.7594 51.2152 25.1826 50.9287C25.6058 50.6423 26.2503 50.486 27.1162 50.46L28.0391 50.4209V50.0938C28.0391 49.6315 27.9398 49.3076 27.7412 49.1221C27.5426 48.9365 27.2627 48.8438 26.9014 48.8438C26.6214 48.8438 26.3545 48.8844 26.1006 48.9658C25.8467 49.0472 25.6058 49.1432 25.3779 49.2539L25.1289 48.6387C25.3698 48.515 25.6465 48.4092 25.959 48.3213C26.2715 48.2334 26.6003 48.1895 26.9453 48.1895ZM28.0293 50.9922L27.2139 51.0264C26.5465 51.0524 26.0762 51.1615 25.8027 51.3535C25.5293 51.5456 25.3926 51.8174 25.3926 52.1689C25.3926 52.4749 25.4854 52.7012 25.6709 52.8477C25.8564 52.9941 26.1022 53.0674 26.4082 53.0674C26.8835 53.0674 27.2725 52.9355 27.5752 52.6719C27.8779 52.4082 28.0293 52.0127 28.0293 51.4854V50.9922ZM34.9189 48.2773V53.6289H34.2549L34.1377 52.877H34.0938C33.9831 53.0625 33.8398 53.2188 33.6641 53.3457C33.4883 53.4727 33.2897 53.5671 33.0684 53.6289C32.8503 53.694 32.6175 53.7266 32.3701 53.7266C31.9469 53.7266 31.5921 53.6582 31.3057 53.5215C31.0192 53.3848 30.8027 53.1732 30.6562 52.8867C30.513 52.6003 30.4414 52.2324 30.4414 51.7832V48.2773H31.2617V51.7246C31.2617 52.1706 31.3626 52.5042 31.5645 52.7256C31.7663 52.9437 32.0739 53.0527 32.4873 53.0527C32.8844 53.0527 33.2002 52.9779 33.4346 52.8281C33.6722 52.6784 33.8431 52.4587 33.9473 52.1689C34.0514 51.876 34.1035 51.5179 34.1035 51.0947V48.2773H34.9189ZM39.167 48.1797C39.8018 48.1797 40.2819 48.3359 40.6074 48.6484C40.9329 48.9577 41.0957 49.4557 41.0957 50.1426V53.6289H40.2949V50.1963C40.2949 49.7503 40.1924 49.4167 39.9873 49.1953C39.7855 48.974 39.4746 48.8633 39.0547 48.8633C38.4622 48.8633 38.0456 49.0309 37.8047 49.3662C37.5638 49.7015 37.4434 50.1882 37.4434 50.8262V53.6289H36.6328V48.2773H37.2871L37.4092 49.0488H37.4531C37.5671 48.86 37.7119 48.7021 37.8877 48.5752C38.0635 48.445 38.2604 48.3473 38.4785 48.2822C38.6966 48.2139 38.9261 48.1797 39.167 48.1797ZM44.6699 53.7266C43.9928 53.7266 43.4557 53.4954 43.0586 53.0332C42.6647 52.571 42.4678 51.8841 42.4678 50.9727C42.4678 50.0514 42.6696 49.3564 43.0732 48.8877C43.4769 48.4157 44.014 48.1797 44.6846 48.1797C44.9678 48.1797 45.2152 48.2171 45.4268 48.292C45.6383 48.3669 45.8206 48.4678 45.9736 48.5947C46.1266 48.7184 46.2552 48.86 46.3594 49.0195H46.418C46.4049 48.9186 46.3919 48.7803 46.3789 48.6045C46.3659 48.4287 46.3594 48.2855 46.3594 48.1748V46.0312H47.1699V53.6289H46.5156L46.3936 52.8672H46.3594C46.2585 53.0267 46.1299 53.1715 45.9736 53.3018C45.8206 53.432 45.6367 53.5361 45.4219 53.6143C45.2103 53.6891 44.9596 53.7266 44.6699 53.7266ZM44.7969 53.0527C45.3698 53.0527 45.7751 52.89 46.0127 52.5645C46.2503 52.2389 46.3691 51.7555 46.3691 51.1143V50.9678C46.3691 50.2874 46.2552 49.765 46.0273 49.4004C45.8027 49.0358 45.3926 48.8535 44.7969 48.8535C44.2988 48.8535 43.9261 49.0456 43.6787 49.4297C43.4313 49.8105 43.3076 50.3314 43.3076 50.9922C43.3076 51.6497 43.4297 52.1576 43.6738 52.5156C43.9212 52.8737 44.2956 53.0527 44.7969 53.0527ZM51.3203 48.1797C51.4277 48.1797 51.54 48.1862 51.6572 48.1992C51.7744 48.209 51.8786 48.2236 51.9697 48.2432L51.8672 48.9951C51.7793 48.9723 51.6816 48.9544 51.5742 48.9414C51.4668 48.9284 51.3659 48.9219 51.2715 48.9219C51.0566 48.9219 50.8532 48.9658 50.6611 49.0537C50.4723 49.1383 50.3063 49.262 50.1631 49.4248C50.0199 49.5843 49.9076 49.778 49.8262 50.0059C49.7448 50.2305 49.7041 50.4811 49.7041 50.7578V53.6289H48.8887V48.2773H49.5625L49.6504 49.2637H49.6846C49.7952 49.0651 49.9287 48.8844 50.085 48.7217C50.2412 48.5557 50.4219 48.4238 50.627 48.3262C50.8353 48.2285 51.0664 48.1797 51.3203 48.1797ZM52.1357 48.2773H53.0049L54.1865 51.3828C54.2549 51.5651 54.3184 51.7409 54.377 51.9102C54.4355 52.0762 54.4876 52.2357 54.5332 52.3887C54.5788 52.5417 54.6146 52.6898 54.6406 52.833H54.6748C54.7204 52.6702 54.7855 52.457 54.8701 52.1934C54.9548 51.9264 55.0459 51.6546 55.1436 51.3779L56.2617 48.2773H57.1357L54.8066 54.415C54.6829 54.7438 54.5381 55.0303 54.3721 55.2744C54.2093 55.5186 54.0107 55.7057 53.7764 55.8359C53.542 55.9694 53.2588 56.0361 52.9268 56.0361C52.7738 56.0361 52.6387 56.0264 52.5215 56.0068C52.4043 55.9906 52.3034 55.971 52.2188 55.9482V55.2988C52.2904 55.3151 52.3766 55.3298 52.4775 55.3428C52.5817 55.3558 52.6891 55.3623 52.7998 55.3623C53.0016 55.3623 53.1758 55.3232 53.3223 55.2451C53.472 55.1702 53.6006 55.0596 53.708 54.9131C53.8154 54.7666 53.9082 54.5924 53.9863 54.3906L54.2793 53.6387L52.1357 48.2773Z" fill="#0D29A6"/>
<defs>
<filter id="filter0_d_1694_14418" x="0" y="0" width="76" height="76" filterUnits="userSpaceOnUse" color-interpolation-filters="sRGB">
<feFlood flood-opacity="0" result="BackgroundImageFix"/>
<feColorMatrix in="SourceAlpha" type="matrix" values="0 0 0 0 0 0 0 0 0 0 0 0 0 0 0 0 0 0 127 0" result="hardAlpha"/>
<feOffset/>
<feGaussianBlur stdDeviation="1.5"/>
<feComposite in2="hardAlpha" operator="out"/>
<feColorMatrix type="matrix" values="0 0 0 0 0.409413 0 0 0 0 0.473627 0 0 0 0 0.569948 0 0 0 1 0"/>
<feBlend mode="normal" in2="BackgroundImageFix" result="effect1_dropShadow_1694_14418"/>
<feBlend mode="normal" in="SourceGraphic" in2="effect1_dropShadow_1694_14418" result="shape"/>
</filter>
</defs>
</svg>
