<svg width="60" height="60" viewBox="0 0 60 60" fill="none" xmlns="http://www.w3.org/2000/svg">
<path d="M23.2751 16.775C23.0433 17.0063 22.8594 17.281 22.734 17.5834C22.6085 17.8859 22.5439 18.2101 22.5439 18.5375C22.5439 18.8649 22.6085 19.1891 22.734 19.4916C22.8594 19.794 23.0433 20.0687 23.2751 20.3L32.9751 30L23.2751 39.7C22.8076 40.1674 22.545 40.8014 22.545 41.4625C22.545 42.1236 22.8076 42.7576 23.2751 43.225C23.7425 43.6924 24.3765 43.955 25.0376 43.955C25.6986 43.955 26.3326 43.6924 26.8001 43.225L38.2751 31.75C38.5068 31.5187 38.6907 31.244 38.8161 30.9416C38.9416 30.6391 39.0062 30.3149 39.0062 29.9875C39.0062 29.6601 38.9416 29.3359 38.8161 29.0334C38.6907 28.731 38.5068 28.4563 38.2751 28.225L26.8001 16.75C25.8501 15.8 24.2501 15.8 23.2751 16.775Z" fill="#152C5B"/>
<circle cx="30" cy="30" r="29.5" fill="white" fill-opacity="0.04" stroke="#152C5B"/>
</svg>
