<svg width="50" height="50" viewBox="0 0 50 50" fill="none" xmlns="http://www.w3.org/2000/svg">
<path d="M36.2188 43.7513C33.8966 43.7513 31.9271 42.943 30.3105 41.3263C28.6938 39.7069 27.8855 37.7374 27.8855 35.418C27.8855 33.0985 28.6938 31.1298 30.3105 29.5117C31.9271 27.8937 33.8959 27.0846 36.2167 27.0846C38.5389 27.0846 40.5084 27.8937 42.125 29.5117C43.7431 31.1284 44.5521 33.0971 44.5521 35.418C44.5521 37.7388 43.7431 39.7082 42.125 41.3263C40.507 42.9444 38.5382 43.7527 36.2188 43.7513ZM37.0188 35.0742V30.2096C37.0188 29.9957 36.9389 29.8082 36.7792 29.6471C36.6181 29.4888 36.4306 29.4096 36.2167 29.4096C36.0042 29.4096 35.8174 29.4895 35.6563 29.6492C35.4966 29.8089 35.4167 29.9957 35.4167 30.2096V35.0701C35.4167 35.2826 35.4556 35.4888 35.5334 35.6888C35.6098 35.8874 35.7389 36.0777 35.9209 36.2596L39.098 39.4367C39.2535 39.5909 39.4368 39.6749 39.648 39.6888C39.8591 39.7027 40.0549 39.6187 40.2355 39.4367C40.416 39.2548 40.507 39.0652 40.5084 38.868C40.5098 38.6707 40.4195 38.4812 40.2375 38.2992L37.0188 35.0742ZM11.7 41.668C10.7737 41.668 9.98129 41.3381 9.32296 40.6784C8.66462 40.0187 8.33476 39.2277 8.33337 38.3055V11.6992C8.33337 10.7742 8.66323 9.98255 9.32296 9.32422C9.98268 8.66588 10.7743 8.33602 11.698 8.33464H21.3584C21.5528 7.52075 21.9855 6.83672 22.6563 6.28255C23.3271 5.727 24.1084 5.44922 25 5.44922C25.9084 5.44922 26.6959 5.727 27.3625 6.28255C28.0292 6.83533 28.4598 7.51936 28.6542 8.33464H38.3C39.2264 8.33464 40.0195 8.6645 40.6792 9.32422C41.3389 9.98394 41.6681 10.7756 41.6667 11.6992V21.7159C41.6667 22.0117 41.5667 22.2589 41.3667 22.4576C41.1667 22.6562 40.9188 22.7562 40.623 22.7576C40.3271 22.7589 40.0799 22.6589 39.8813 22.4576C39.6827 22.2562 39.5834 22.0089 39.5834 21.7159V11.7013C39.5834 11.3805 39.45 11.086 39.1834 10.818C38.9167 10.5499 38.6223 10.4166 38.3 10.418H33.3334V13.3826C33.3334 13.8589 33.1737 14.2589 32.8542 14.5826C32.5348 14.9062 32.1389 15.0673 31.6667 15.0659H18.3334C17.8612 15.0659 17.4653 14.9048 17.1459 14.5826C16.8264 14.2603 16.6667 13.8603 16.6667 13.3826V10.418H11.7C11.3792 10.418 11.0848 10.5513 10.8167 10.818C10.5487 11.0846 10.4153 11.3791 10.4167 11.7013V38.3034C10.4167 38.677 10.5368 38.9839 10.7771 39.2242C11.0174 39.4645 11.325 39.5846 11.7 39.5846H23.8375C24.1334 39.5846 24.3813 39.6846 24.5813 39.8846C24.7813 40.0846 24.8806 40.3326 24.8792 40.6284C24.8778 40.9242 24.7785 41.1714 24.5813 41.3701C24.3841 41.5687 24.1362 41.668 23.8375 41.668H11.7ZM25.0063 10.8971C25.4855 10.8971 25.8848 10.736 26.2042 10.4138C26.5237 10.0902 26.6834 9.6888 26.6834 9.20964C26.6834 8.73047 26.5216 8.33116 26.198 8.01172C25.8743 7.69227 25.473 7.53255 24.9938 7.53255C24.5146 7.53255 24.1153 7.69505 23.7959 8.02005C23.4764 8.34505 23.3167 8.74644 23.3167 9.22422C23.3167 9.702 23.4792 10.1006 23.8042 10.4201C24.1292 10.7395 24.5299 10.8971 25.0063 10.8971Z" fill="#1A56DB"/>
</svg>
