<svg width="60" height="60" viewBox="0 0 60 60" fill="none" xmlns="http://www.w3.org/2000/svg">
<path d="M36.7249 16.775C36.9567 17.0063 37.1406 17.281 37.266 17.5834C37.3915 17.8859 37.4561 18.2101 37.4561 18.5375C37.4561 18.8649 37.3915 19.1891 37.266 19.4916C37.1406 19.794 36.9567 20.0687 36.7249 20.3L27.0249 30L36.7249 39.7C37.1924 40.1674 37.455 40.8014 37.455 41.4625C37.455 42.1236 37.1924 42.7576 36.7249 43.225C36.2575 43.6924 35.6235 43.955 34.9624 43.955C34.3014 43.955 33.6674 43.6924 33.1999 43.225L21.7249 31.75C21.4932 31.5187 21.3093 31.244 21.1839 30.9416C21.0584 30.6391 20.9938 30.3149 20.9938 29.9875C20.9938 29.6601 21.0584 29.3359 21.1839 29.0334C21.3093 28.731 21.4932 28.4563 21.7249 28.225L33.1999 16.75C34.1499 15.8 35.7499 15.8 36.7249 16.775Z" fill="#152C5B"/>
<circle cx="30" cy="30" r="29.5" transform="matrix(-1 0 0 1 60 0)" fill="white" fill-opacity="0.04" stroke="#152C5B"/>
</svg>
