<svg width="76" height="76" viewBox="0 0 76 76" fill="none" xmlns="http://www.w3.org/2000/svg">
<g filter="url(#filter0_d_1694_14431)">
<rect x="3.5" y="3.5" width="69" height="69" rx="34.5" fill="white" stroke="#E8E8E8"/>
</g>
<path d="M42.5833 24.043H32.5833C32.1231 24.043 31.75 24.4161 31.75 24.8763V38.2096C31.75 38.6699 32.1231 39.043 32.5833 39.043H42.5833C43.0436 39.043 43.4167 38.6699 43.4167 38.2096V24.8763C43.4167 24.4161 43.0436 24.043 42.5833 24.043Z" stroke="#3252DF" strokeWidth="2" strokeLinejoin="round"/>
<path d="M31.75 31.5443H43.4167M31.75 30.7109V32.3776M43.4167 30.7109V32.3776M34.25 34.4609V36.1276M34.25 26.9609V28.6276M41.75 39.0443V40.7109M33.4167 39.0443V40.7109" stroke="#3252DF" strokeWidth="2" strokeLinecap="round" strokeLinejoin="round"/>
<path d="M12.834 46.4902C13.4199 46.4902 13.9033 46.5635 14.2842 46.71C14.6683 46.8532 14.9548 47.0729 15.1436 47.3691C15.3324 47.6654 15.4268 48.043 15.4268 48.502C15.4268 48.8796 15.3584 49.1953 15.2217 49.4492C15.085 49.6999 14.9059 49.9033 14.6846 50.0596C14.4632 50.2158 14.2272 50.3363 13.9766 50.4209L15.9346 53.6289H14.9678L13.2197 50.6504H11.7354V53.6289H10.9053V46.4902H12.834ZM12.7852 47.208H11.7354V49.9473H12.8682C13.4508 49.9473 13.8789 49.8285 14.1523 49.5908C14.429 49.3532 14.5674 49.0033 14.5674 48.541C14.5674 48.056 14.4209 47.7126 14.1279 47.5107C13.8382 47.3089 13.3906 47.208 12.7852 47.208ZM19.0156 48.1797C19.4714 48.1797 19.862 48.2806 20.1875 48.4824C20.513 48.6842 20.762 48.9674 20.9346 49.332C21.1071 49.6934 21.1934 50.1165 21.1934 50.6016V51.1045H17.4971C17.5068 51.7327 17.6631 52.2113 17.9658 52.54C18.2686 52.8688 18.695 53.0332 19.2451 53.0332C19.5837 53.0332 19.8831 53.0023 20.1436 52.9404C20.404 52.8786 20.6742 52.7874 20.9541 52.667V53.3799C20.6839 53.5003 20.4154 53.5882 20.1484 53.6436C19.8848 53.6989 19.5723 53.7266 19.2109 53.7266C18.6966 53.7266 18.2474 53.6224 17.8633 53.4141C17.4824 53.2025 17.1862 52.8932 16.9746 52.4863C16.763 52.0794 16.6572 51.5814 16.6572 50.9922C16.6572 50.416 16.7533 49.918 16.9453 49.498C17.1406 49.0749 17.4141 48.7493 17.7656 48.5215C18.1204 48.2936 18.5371 48.1797 19.0156 48.1797ZM19.0059 48.8438C18.5729 48.8438 18.2279 48.9854 17.9707 49.2686C17.7135 49.5518 17.5605 49.9473 17.5117 50.4551H20.3438C20.3405 50.1361 20.29 49.8561 20.1924 49.6152C20.098 49.3711 19.9531 49.1823 19.7578 49.0488C19.5625 48.9121 19.3118 48.8438 19.0059 48.8438ZM24.9531 48.9121H23.6201V53.6289H22.8096V48.9121H21.8623V48.5215L22.8096 48.2529V47.8965C22.8096 47.4473 22.8763 47.0827 23.0098 46.8027C23.1432 46.5195 23.3369 46.3112 23.5908 46.1777C23.8447 46.0443 24.154 45.9775 24.5186 45.9775C24.7236 45.9775 24.9108 45.9954 25.0801 46.0312C25.2526 46.0671 25.404 46.1077 25.5342 46.1533L25.3242 46.793C25.2135 46.7572 25.0882 46.7246 24.9482 46.6953C24.8115 46.6628 24.6715 46.6465 24.5283 46.6465C24.2191 46.6465 23.9896 46.7474 23.8398 46.9492C23.6934 47.1478 23.6201 47.4603 23.6201 47.8867V48.2773H24.9531V48.9121ZM28.3711 48.1797C28.4785 48.1797 28.5908 48.1862 28.708 48.1992C28.8252 48.209 28.9294 48.2236 29.0205 48.2432L28.918 48.9951C28.8301 48.9723 28.7324 48.9544 28.625 48.9414C28.5176 48.9284 28.4167 48.9219 28.3223 48.9219C28.1074 48.9219 27.904 48.9658 27.7119 49.0537C27.5231 49.1383 27.3571 49.262 27.2139 49.4248C27.0706 49.5843 26.9583 49.778 26.877 50.0059C26.7956 50.2305 26.7549 50.4811 26.7549 50.7578V53.6289H25.9395V48.2773H26.6133L26.7012 49.2637H26.7354C26.846 49.0651 26.9795 48.8844 27.1357 48.7217C27.292 48.5557 27.4727 48.4238 27.6777 48.3262C27.8861 48.2285 28.1172 48.1797 28.3711 48.1797ZM30.8418 48.2773V53.6289H30.0312V48.2773H30.8418ZM30.4463 46.2754C30.5798 46.2754 30.6937 46.3193 30.7881 46.4072C30.8857 46.4919 30.9346 46.6253 30.9346 46.8076C30.9346 46.9867 30.8857 47.1201 30.7881 47.208C30.6937 47.2959 30.5798 47.3398 30.4463 47.3398C30.3063 47.3398 30.1891 47.2959 30.0947 47.208C30.0036 47.1201 29.958 46.9867 29.958 46.8076C29.958 46.6253 30.0036 46.4919 30.0947 46.4072C30.1891 46.3193 30.3063 46.2754 30.4463 46.2754ZM34.0547 56.0312C33.3516 56.0312 32.8096 55.8994 32.4287 55.6357C32.0479 55.3753 31.8574 55.0091 31.8574 54.5371C31.8574 54.2018 31.9632 53.9154 32.1748 53.6777C32.3896 53.4401 32.6859 53.2822 33.0635 53.2041C32.9235 53.139 32.8031 53.0413 32.7021 52.9111C32.6045 52.7809 32.5557 52.6312 32.5557 52.4619C32.5557 52.2666 32.6094 52.0957 32.7168 51.9492C32.8275 51.7995 32.9951 51.6562 33.2197 51.5195C32.9398 51.4056 32.7119 51.2135 32.5361 50.9434C32.3636 50.6699 32.2773 50.3525 32.2773 49.9912C32.2773 49.6071 32.3571 49.2799 32.5166 49.0098C32.6761 48.7363 32.9072 48.528 33.21 48.3848C33.5127 48.2415 33.8789 48.1699 34.3086 48.1699C34.403 48.1699 34.4974 48.1748 34.5918 48.1846C34.6895 48.1911 34.7822 48.2025 34.8701 48.2188C34.958 48.2318 35.0345 48.248 35.0996 48.2676H36.9355V48.79L35.9492 48.9121C36.0469 49.0391 36.1283 49.1921 36.1934 49.3711C36.2585 49.5501 36.291 49.7487 36.291 49.9668C36.291 50.5007 36.1104 50.9255 35.749 51.2412C35.3877 51.5537 34.8913 51.71 34.2598 51.71C34.11 51.71 33.957 51.6969 33.8008 51.6709C33.6413 51.7588 33.5192 51.8564 33.4346 51.9639C33.3532 52.0713 33.3125 52.195 33.3125 52.335C33.3125 52.4391 33.3434 52.5221 33.4053 52.584C33.4704 52.6458 33.5632 52.6914 33.6836 52.7207C33.804 52.7467 33.9489 52.7598 34.1182 52.7598H35.0605C35.6432 52.7598 36.0892 52.8818 36.3984 53.126C36.7109 53.3701 36.8672 53.7266 36.8672 54.1953C36.8672 54.7878 36.6263 55.2419 36.1445 55.5576C35.6628 55.8734 34.9661 56.0312 34.0547 56.0312ZM34.0791 55.3965C34.5218 55.3965 34.888 55.3509 35.1777 55.2598C35.4707 55.1719 35.6888 55.0433 35.832 54.874C35.9785 54.708 36.0518 54.5094 36.0518 54.2783C36.0518 54.0635 36.0029 53.9007 35.9053 53.79C35.8076 53.6826 35.6644 53.611 35.4756 53.5752C35.2868 53.5361 35.0557 53.5166 34.7822 53.5166H33.8545C33.6136 53.5166 33.4036 53.554 33.2246 53.6289C33.0456 53.7038 32.9072 53.8145 32.8096 53.9609C32.7152 54.1074 32.668 54.2897 32.668 54.5078C32.668 54.7975 32.79 55.0173 33.0342 55.167C33.2783 55.32 33.6266 55.3965 34.0791 55.3965ZM34.2891 51.1191C34.6764 51.1191 34.9678 51.0215 35.1631 50.8262C35.3584 50.6309 35.4561 50.346 35.4561 49.9717C35.4561 49.5713 35.3568 49.2718 35.1582 49.0732C34.9596 48.8714 34.6667 48.7705 34.2793 48.7705C33.9082 48.7705 33.6217 48.8747 33.4199 49.083C33.2214 49.2881 33.1221 49.5892 33.1221 49.9863C33.1221 50.3509 33.223 50.6309 33.4248 50.8262C33.6266 51.0215 33.9147 51.1191 34.2891 51.1191ZM40.0508 48.1797C40.5065 48.1797 40.8971 48.2806 41.2227 48.4824C41.5482 48.6842 41.7972 48.9674 41.9697 49.332C42.1423 49.6934 42.2285 50.1165 42.2285 50.6016V51.1045H38.5322C38.542 51.7327 38.6982 52.2113 39.001 52.54C39.3037 52.8688 39.7301 53.0332 40.2803 53.0332C40.6188 53.0332 40.9183 53.0023 41.1787 52.9404C41.4391 52.8786 41.7093 52.7874 41.9893 52.667V53.3799C41.7191 53.5003 41.4505 53.5882 41.1836 53.6436C40.9199 53.6989 40.6074 53.7266 40.2461 53.7266C39.7318 53.7266 39.2826 53.6224 38.8984 53.4141C38.5176 53.2025 38.2214 52.8932 38.0098 52.4863C37.7982 52.0794 37.6924 51.5814 37.6924 50.9922C37.6924 50.416 37.7884 49.918 37.9805 49.498C38.1758 49.0749 38.4492 48.7493 38.8008 48.5215C39.1556 48.2936 39.5723 48.1797 40.0508 48.1797ZM40.041 48.8438C39.6081 48.8438 39.263 48.9854 39.0059 49.2686C38.7487 49.5518 38.5957 49.9473 38.5469 50.4551H41.3789C41.3757 50.1361 41.3252 49.8561 41.2275 49.6152C41.1331 49.3711 40.9883 49.1823 40.793 49.0488C40.5977 48.9121 40.347 48.8438 40.041 48.8438ZM46.0371 48.1797C46.1445 48.1797 46.2568 48.1862 46.374 48.1992C46.4912 48.209 46.5954 48.2236 46.6865 48.2432L46.584 48.9951C46.4961 48.9723 46.3984 48.9544 46.291 48.9414C46.1836 48.9284 46.0827 48.9219 45.9883 48.9219C45.7734 48.9219 45.57 48.9658 45.3779 49.0537C45.1891 49.1383 45.0231 49.262 44.8799 49.4248C44.7367 49.5843 44.6243 49.778 44.543 50.0059C44.4616 50.2305 44.4209 50.4811 44.4209 50.7578V53.6289H43.6055V48.2773H44.2793L44.3672 49.2637H44.4014C44.512 49.0651 44.6455 48.8844 44.8018 48.7217C44.958 48.5557 45.1387 48.4238 45.3438 48.3262C45.5521 48.2285 45.7832 48.1797 46.0371 48.1797ZM49.6992 48.1895C50.3372 48.1895 50.8109 48.3327 51.1201 48.6191C51.4294 48.9056 51.584 49.363 51.584 49.9912V53.6289H50.9932L50.8369 52.8379H50.7979C50.6481 53.0332 50.4919 53.1976 50.3291 53.3311C50.1663 53.4613 49.9775 53.5605 49.7627 53.6289C49.5511 53.694 49.2907 53.7266 48.9814 53.7266C48.6559 53.7266 48.3662 53.6696 48.1123 53.5557C47.8617 53.4417 47.6631 53.2692 47.5166 53.0381C47.3734 52.807 47.3018 52.514 47.3018 52.1592C47.3018 51.6253 47.5133 51.2152 47.9365 50.9287C48.3597 50.6423 49.0042 50.486 49.8701 50.46L50.793 50.4209V50.0938C50.793 49.6315 50.6937 49.3076 50.4951 49.1221C50.2965 48.9365 50.0166 48.8438 49.6553 48.8438C49.3753 48.8438 49.1084 48.8844 48.8545 48.9658C48.6006 49.0472 48.3597 49.1432 48.1318 49.2539L47.8828 48.6387C48.1237 48.515 48.4004 48.4092 48.7129 48.3213C49.0254 48.2334 49.3542 48.1895 49.6992 48.1895ZM50.7832 50.9922L49.9678 51.0264C49.3005 51.0524 48.8301 51.1615 48.5566 51.3535C48.2832 51.5456 48.1465 51.8174 48.1465 52.1689C48.1465 52.4749 48.2393 52.7012 48.4248 52.8477C48.6104 52.9941 48.8561 53.0674 49.1621 53.0674C49.6374 53.0674 50.0264 52.9355 50.3291 52.6719C50.6318 52.4082 50.7832 52.0127 50.7832 51.4854V50.9922ZM54.9824 53.0625C55.1159 53.0625 55.2526 53.0511 55.3926 53.0283C55.5326 53.0055 55.6465 52.9779 55.7344 52.9453V53.5752C55.64 53.6175 55.5081 53.6533 55.3389 53.6826C55.1729 53.7119 55.0101 53.7266 54.8506 53.7266C54.5674 53.7266 54.3102 53.6777 54.0791 53.5801C53.848 53.4792 53.6624 53.3099 53.5225 53.0723C53.3857 52.8346 53.3174 52.5059 53.3174 52.0859V48.9121H52.5557V48.5166L53.3223 48.1992L53.6445 47.0371H54.1328V48.2773H55.7002V48.9121H54.1328V52.0615C54.1328 52.3968 54.2093 52.6475 54.3623 52.8135C54.5186 52.9795 54.7253 53.0625 54.9824 53.0625ZM61.4326 50.9434C61.4326 51.3828 61.3757 51.7751 61.2617 52.1201C61.1478 52.4652 60.9834 52.7565 60.7686 52.9941C60.5537 53.2318 60.2933 53.4141 59.9873 53.541C59.6846 53.6647 59.3411 53.7266 58.957 53.7266C58.599 53.7266 58.2702 53.6647 57.9707 53.541C57.6745 53.4141 57.4173 53.2318 57.1992 52.9941C56.9844 52.7565 56.8167 52.4652 56.6963 52.1201C56.5791 51.7751 56.5205 51.3828 56.5205 50.9434C56.5205 50.3574 56.6198 49.8594 56.8184 49.4492C57.0169 49.0358 57.3001 48.7217 57.668 48.5068C58.0391 48.2887 58.4801 48.1797 58.9912 48.1797C59.4795 48.1797 59.9059 48.2887 60.2705 48.5068C60.6383 48.7249 60.9232 49.0407 61.125 49.4541C61.3301 49.8643 61.4326 50.3607 61.4326 50.9434ZM57.3604 50.9434C57.3604 51.373 57.4173 51.7458 57.5312 52.0615C57.6452 52.3773 57.821 52.6214 58.0586 52.7939C58.2962 52.9665 58.6022 53.0527 58.9766 53.0527C59.3477 53.0527 59.652 52.9665 59.8896 52.7939C60.1305 52.6214 60.3079 52.3773 60.4219 52.0615C60.5358 51.7458 60.5928 51.373 60.5928 50.9434C60.5928 50.5169 60.5358 50.1491 60.4219 49.8398C60.3079 49.5273 60.1322 49.2865 59.8945 49.1172C59.6569 48.9479 59.3493 48.8633 58.9717 48.8633C58.415 48.8633 58.0065 49.0472 57.7461 49.415C57.4889 49.7829 57.3604 50.2923 57.3604 50.9434ZM65.2656 48.1797C65.373 48.1797 65.4854 48.1862 65.6025 48.1992C65.7197 48.209 65.8239 48.2236 65.915 48.2432L65.8125 48.9951C65.7246 48.9723 65.627 48.9544 65.5195 48.9414C65.4121 48.9284 65.3112 48.9219 65.2168 48.9219C65.002 48.9219 64.7985 48.9658 64.6064 49.0537C64.4176 49.1383 64.2516 49.262 64.1084 49.4248C63.9652 49.5843 63.8529 49.778 63.7715 50.0059C63.6901 50.2305 63.6494 50.4811 63.6494 50.7578V53.6289H62.834V48.2773H63.5078L63.5957 49.2637H63.6299C63.7406 49.0651 63.874 48.8844 64.0303 48.7217C64.1865 48.5557 64.3672 48.4238 64.5723 48.3262C64.7806 48.2285 65.0117 48.1797 65.2656 48.1797Z" fill="#0D29A6"/>
<defs>
<filter id="filter0_d_1694_14431" x="0" y="0" width="76" height="76" filterUnits="userSpaceOnUse" color-interpolation-filters="sRGB">
<feFlood flood-opacity="0" result="BackgroundImageFix"/>
<feColorMatrix in="SourceAlpha" type="matrix" values="0 0 0 0 0 0 0 0 0 0 0 0 0 0 0 0 0 0 127 0" result="hardAlpha"/>
<feOffset/>
<feGaussianBlur stdDeviation="1.5"/>
<feComposite in2="hardAlpha" operator="out"/>
<feColorMatrix type="matrix" values="0 0 0 0 0.409413 0 0 0 0 0.473627 0 0 0 0 0.569948 0 0 0 1 0"/>
<feBlend mode="normal" in2="BackgroundImageFix" result="effect1_dropShadow_1694_14431"/>
<feBlend mode="normal" in="SourceGraphic" in2="effect1_dropShadow_1694_14431" result="shape"/>
</filter>
</defs>
</svg>
