<svg width="21" height="21" viewBox="0 0 21 21" fill="none" xmlns="http://www.w3.org/2000/svg">
<path fillRule="evenodd" clipRule="evenodd" d="M6.03337 8.65642C6.19333 8.69938 6.32969 8.80408 6.4125 8.94752C6.49532 9.09096 6.51781 9.26141 6.47504 9.42142C6.26174 10.2175 6.2893 11.0589 6.55422 11.8392C6.81914 12.6196 7.30953 13.3039 7.96337 13.8056C8.61721 14.3072 9.40513 14.6037 10.2275 14.6576C11.0498 14.7114 11.8697 14.5202 12.5834 14.1081C12.6545 14.067 12.733 14.0404 12.8144 14.0297C12.8959 14.019 12.9786 14.0245 13.0579 14.0458C13.1372 14.067 13.2116 14.1037 13.2767 14.1537C13.3419 14.2038 13.3965 14.2661 13.4375 14.3372C13.4786 14.4084 13.5052 14.4869 13.5159 14.5683C13.5266 14.6497 13.5211 14.7325 13.4999 14.8118C13.4786 14.8911 13.4419 14.9655 13.3919 15.0306C13.3419 15.0957 13.2795 15.1504 13.2084 15.1914C12.2805 15.7268 11.2147 15.9751 10.1458 15.9049C9.07679 15.8347 8.05263 15.4492 7.20275 14.797C6.35286 14.1449 5.7154 13.2554 5.37094 12.241C5.02649 11.2266 4.9905 10.1329 5.26754 9.09808C5.28881 9.01879 5.32549 8.94446 5.37549 8.87935C5.4255 8.81423 5.48784 8.75961 5.55896 8.71859C5.63007 8.67758 5.70858 8.65098 5.78998 8.64031C5.87138 8.62964 5.95408 8.63511 6.03337 8.65642ZM7.7917 5.80808C8.71953 5.27224 9.78543 5.0236 10.8546 5.09361C11.9237 5.16362 12.9481 5.54914 13.7981 6.2014C14.6482 6.85366 15.2857 7.74337 15.63 8.75798C15.9743 9.77259 16.01 10.8665 15.7325 11.9014C15.6897 12.0617 15.5849 12.1983 15.4413 12.2813C15.2976 12.3643 15.1269 12.3868 14.9667 12.3439C14.8065 12.301 14.6698 12.1963 14.5868 12.0526C14.5039 11.909 14.4813 11.7383 14.5242 11.5781C14.7369 10.7822 14.709 9.94118 14.444 9.16118C14.1789 8.38119 13.6887 7.69724 13.0351 7.19573C12.3816 6.69422 11.5941 6.39765 10.772 6.34349C9.95003 6.28933 9.13041 6.48 8.4167 6.89142C8.27304 6.9743 8.10235 6.99671 7.94216 6.95374C7.78197 6.91076 7.64542 6.80591 7.56254 6.66225C7.47966 6.51859 7.45724 6.34789 7.50022 6.1877C7.54319 6.02752 7.64805 5.89096 7.7917 5.80808Z" fill="white"/>
<path fillRule="evenodd" clipRule="evenodd" d="M5.2667 8.38981C5.38389 8.27277 5.54274 8.20703 5.70837 8.20703C5.87399 8.20703 6.03285 8.27277 6.15003 8.38981L8.23337 10.4731C8.29477 10.5304 8.34403 10.5994 8.37819 10.676C8.41235 10.7527 8.43071 10.8355 8.43219 10.9194C8.43368 11.0033 8.41824 11.0867 8.3868 11.1645C8.35537 11.2423 8.30858 11.313 8.24923 11.3723C8.18988 11.4317 8.11919 11.4785 8.04137 11.5099C7.96354 11.5414 7.88019 11.5568 7.79627 11.5553C7.71235 11.5538 7.62959 11.5355 7.55292 11.5013C7.47625 11.4671 7.40725 11.4179 7.35003 11.3565L5.70837 9.71481L4.0667 11.3565C3.94822 11.4669 3.79152 11.527 3.6296 11.5241C3.46768 11.5213 3.31319 11.4557 3.19868 11.3412C3.08417 11.2267 3.01858 11.0722 3.01572 10.9102C3.01287 10.7483 3.07297 10.5916 3.18337 10.4731L5.2667 8.38981ZM12.7667 9.63981C12.8839 9.52277 13.0427 9.45703 13.2084 9.45703C13.374 9.45703 13.5328 9.52277 13.65 9.63981L15.2917 11.2815L16.9334 9.63981C16.9906 9.57841 17.0596 9.52916 17.1363 9.495C17.2129 9.46084 17.2957 9.44247 17.3796 9.44099C17.4635 9.43951 17.5469 9.45494 17.6247 9.48638C17.7025 9.51781 17.7732 9.5646 17.8326 9.62395C17.8919 9.6833 17.9387 9.75399 17.9701 9.83182C18.0016 9.90964 18.017 9.993 18.0155 10.0769C18.014 10.1608 17.9957 10.2436 17.9615 10.3203C17.9274 10.3969 17.8781 10.4659 17.8167 10.5231L15.7334 12.6065C15.6162 12.7235 15.4573 12.7893 15.2917 12.7893C15.1261 12.7893 14.9672 12.7235 14.85 12.6065L12.7667 10.5231C12.6497 10.406 12.5839 10.2471 12.5839 10.0815C12.5839 9.91586 12.6497 9.757 12.7667 9.63981Z" fill="white"/>
</svg>
