<svg width="50" height="50" viewBox="0 0 50 50" fill="none" xmlns="http://www.w3.org/2000/svg">
<path d="M46.1426 20.1162H33.6426C33.4277 20.1162 33.252 20.292 33.252 20.5068V22.8506C33.252 23.0654 33.4277 23.2412 33.6426 23.2412H46.1426C46.3574 23.2412 46.5332 23.0654 46.5332 22.8506V20.5068C46.5332 20.292 46.3574 20.1162 46.1426 20.1162ZM39.5996 26.7568H33.6426C33.4277 26.7568 33.252 26.9326 33.252 27.1475V29.4912C33.252 29.7061 33.4277 29.8818 33.6426 29.8818H39.5996C39.8145 29.8818 39.9902 29.7061 39.9902 29.4912V27.1475C39.9902 26.9326 39.8145 26.7568 39.5996 26.7568ZM23.3057 15.7461H21.1914C20.8887 15.7461 20.6445 15.9902 20.6445 16.293V28.4023C20.6445 28.5781 20.7275 28.7393 20.8691 28.8418L28.1396 34.1445C28.3838 34.3203 28.7256 34.2715 28.9014 34.0273L30.1562 32.3135V32.3086C30.332 32.0645 30.2783 31.7227 30.0342 31.5469L23.8477 27.0742V16.293C23.8525 15.9902 23.6035 15.7461 23.3057 15.7461Z" fill="#1A56DB"/>
<path d="M39.2968 32.9038H36.4746C36.2011 32.9038 35.9424 33.0454 35.7959 33.2798C35.1758 34.2613 34.4531 35.1695 33.623 35.9995C32.1924 37.4302 30.5273 38.5532 28.6767 39.3345C26.7578 40.145 24.7217 40.5552 22.622 40.5552C20.5175 40.5552 18.4814 40.145 16.5674 39.3345C14.7168 38.5532 13.0517 37.4302 11.6211 35.9995C10.1904 34.5689 9.06736 32.9038 8.28611 31.0532C7.47556 29.1392 7.0654 27.1031 7.0654 24.9986C7.0654 22.8941 7.47556 20.8628 8.28611 18.9439C9.06736 17.0933 10.1904 15.4282 11.6211 13.9976C13.0517 12.5669 14.7168 11.4439 16.5674 10.6626C18.4814 9.85208 20.5224 9.44192 22.622 9.44192C24.7265 9.44192 26.7627 9.85208 28.6767 10.6626C30.5273 11.4439 32.1924 12.5669 33.623 13.9976C34.4531 14.8277 35.1758 15.7359 35.7959 16.7173C35.9424 16.9517 36.2011 17.0933 36.4746 17.0933H39.2968C39.6338 17.0933 39.8486 16.7417 39.6972 16.4439C36.5136 10.1109 30.0586 5.99465 22.8515 5.91165C12.2998 5.77981 3.53513 14.4175 3.5156 24.9595C3.49607 35.521 12.0556 44.0904 22.6172 44.0904C29.917 44.0904 36.4795 39.9595 39.6972 33.5532C39.8486 33.2554 39.6289 32.9038 39.2968 32.9038Z" fill="#1A56DB"/>
</svg>
