<svg width="54" height="48" viewBox="0 0 54 48" fill="none" xmlns="http://www.w3.org/2000/svg">
<path opacity="0.21" fillRule="evenodd" clipRule="evenodd" d="M0.253906 23.9994V24.8503C0.253906 37.5529 10.5513 47.8503 23.2539 47.8503H26.9587H30.6634C43.366 47.8503 53.6634 37.5529 53.6634 24.8503V23.9994V23.1484C53.6634 10.4459 43.366 0.148438 30.6634 0.148438H26.9587H23.2539C10.5514 0.148438 0.253906 10.4459 0.253906 23.1484V23.9994Z" fill="#8280FF"/>
<path d="M20.8504 26.3156C20.2515 26.3156 19.7428 26.084 19.3244 25.6207C18.9059 25.1574 18.6967 24.5942 18.6967 23.9312C18.6967 23.2681 18.9059 22.705 19.3244 22.2417C19.7428 21.7784 20.2515 21.5468 20.8504 21.5468C21.4493 21.5468 21.9579 21.7784 22.3764 22.2417C22.7948 22.705 23.004 23.2681 23.004 23.9312C23.004 24.5942 22.7948 25.1574 22.3764 25.6207C21.9579 26.084 21.4493 26.3156 20.8504 26.3156ZM20.8504 30.0421C22.1531 30.0421 23.2914 29.6343 24.2652 28.8189C25.239 28.0051 25.8643 27.0217 26.1412 25.8687H29.4662L30.7134 26.9279C30.7997 26.9899 30.8888 27.0398 30.9805 27.0777C31.0723 27.1156 31.1734 27.1341 31.2839 27.1332C31.3943 27.1324 31.495 27.1139 31.586 27.0777C31.677 27.0398 31.7661 26.9812 31.8532 26.902L33.4364 25.5458L34.8504 26.7509C34.9515 26.825 35.0604 26.8848 35.177 26.9304C35.2929 26.9761 35.4061 26.9881 35.5165 26.9666C35.627 26.9451 35.7343 26.9089 35.8385 26.8581C35.9428 26.8073 36.0361 26.7341 36.1185 26.6385L37.8009 24.6532C37.8981 24.5413 37.9673 24.4263 38.0085 24.3084C38.049 24.1912 38.0692 24.0629 38.0692 23.9234C38.0692 23.7839 38.0478 23.6569 38.005 23.5424C37.9623 23.4279 37.8919 23.3168 37.7939 23.2091L36.9795 22.3063C36.8784 22.1943 36.7695 22.1142 36.6529 22.066C36.5362 22.0178 36.4156 21.9937 36.2912 21.9937H26.1412C25.869 20.8613 25.2491 19.8827 24.2815 19.0577C23.3148 18.2328 22.171 17.8203 20.8504 17.8203C19.2948 17.8203 17.9858 18.4085 16.9234 19.5847C15.8625 20.7601 15.332 22.209 15.332 23.9312C15.332 25.6534 15.8633 27.1027 16.9257 28.2789C17.9881 29.4552 19.2964 30.0425 20.8504 30.0408" fill="#8280FF"/>
</svg>
